<svg width="50" height="50" fill="none" xmlns="http://www.w3.org/2000/svg"><rect width="50" height="50" rx="25" fill="#E9F6EB"/><g clip-path="url(#clip0_1_2218)"><path d="M29.958 10.833a4.959 4.959 0 014.87 5.898l-.022.093a6.377 6.377 0 01.43 11.94l-1.54 9.218a1.416 1.416 0 01-1.396 1.184H17.7a1.416 1.416 0 01-1.397-1.184l-1.458-8.74a4.25 4.25 0 01-1.174-8.252l-.004-.24a8.5 8.5 0 0112.146-7.68 4.954 4.954 0 014.145-2.237zM20.75 29.25h-3.032l1.182 7.083h1.85V29.25zm5.667 0h-2.834v7.083h2.834V29.25zm5.863 0h-3.03v7.083h1.849l1.181-7.083zM22.167 15.083c-3.035 0-5.513 2.386-5.66 5.337l-.007.279.004.24a2.834 2.834 0 01-1.68 2.64l-.213.083a1.418 1.418 0 00.472 2.754h17.709a3.543 3.543 0 10-1.355-6.814l-.248.115a2.833 2.833 0 01-3.772-1.14l-.1-.193a5.667 5.667 0 00-5.15-3.301zm7.791-1.417a2.126 2.126 0 00-1.823 1.033 8.508 8.508 0 011.757 2.5 6.305 6.305 0 012.048-.643 2.126 2.126 0 00-1.982-2.89z" fill="#5DBD6D"/></g><defs><clipPath id="clip0_1_2218"><path fill="#fff" transform="translate(8 8)" d="M0 0h34v34H0z"/></clipPath></defs></svg>