<svg width="50" height="50" fill="none" xmlns="http://www.w3.org/2000/svg"><rect width="50" height="50" rx="25" fill="#FCE3E8"/><g clip-path="url(#clip0_1_2234)"><path d="M26.417 10.833v1.81l7.083 2.364 5.145-1.715.897 2.686-4.295 1.433 4.386 12.058a8.48 8.48 0 01-6.133 2.614 8.478 8.478 0 01-6.133-2.614l4.383-12.058-5.333-1.78v19.285h5.666v2.834H17.917v-2.834h5.666V15.631l-5.338 1.78 4.386 12.058a8.475 8.475 0 01-6.131 2.614 8.478 8.478 0 01-6.133-2.614l4.383-12.058-4.292-1.431.897-2.69 5.145 1.715 7.083-2.362v-1.81h2.834zM33.5 20.896l-2.774 7.63a5.63 5.63 0 002.774.724c.992 0 1.94-.255 2.774-.723L33.5 20.894v.002zm-17 0l-2.774 7.63a5.63 5.63 0 002.774.724c.992 0 1.94-.255 2.774-.723L16.5 20.894v.002z" fill="#F37A92"/></g><defs><clipPath id="clip0_1_2234"><path fill="#fff" transform="translate(8 8)" d="M0 0h34v34H0z"/></clipPath></defs></svg>