<svg width="50" height="50" fill="none" xmlns="http://www.w3.org/2000/svg"><rect width="50" height="50" rx="25" fill="#FCE3E8"/><rect x="13.25" y="13.25" width="23.5" height="23.5" rx="6.75" stroke="#F37A92" stroke-width="2.5"/><path d="M18.998 24.774c-.547.07-1.056-.318-1.048-.87a7.002 7.002 0 017.017-6.898 7.002 7.002 0 016.982 6.934c.005.552-.506.938-1.054.864l-.144-.02c-.547-.073-.92-.58-.96-1.13a4.855 4.855 0 00-9.682-.025c-.043.55-.419 1.055-.967 1.126l-.144.019z" fill="#F37A92"/><circle cx="25" cy="23.5" r="1.5" fill="#F37A92"/><path fill-rule="evenodd" clip-rule="evenodd" d="M27.428 21.265a1 1 0 01-.072 1.412l-1.113 1.006-1.34-1.484 1.112-1.006a1 1 0 011.413.072z" fill="#F37A92"/></svg>