<svg width="673" height="559" viewBox="0 0 673 559" fill="none" xmlns="http://www.w3.org/2000/svg">
<path d="M237.533 132.181C237.603 132.692 237.517 133.211 237.285 133.674C237.053 134.136 236.687 134.521 236.232 134.78C235.777 135.038 235.254 135.159 234.729 135.127C234.204 135.094 233.701 134.91 233.282 134.597C232.864 134.285 232.55 133.858 232.38 133.37C232.209 132.883 232.19 132.357 232.325 131.859C232.46 131.361 232.743 130.914 233.137 130.573C233.532 130.232 234.021 130.014 234.542 129.945C235.241 129.856 235.948 130.041 236.508 130.46C237.068 130.879 237.437 131.497 237.533 132.181V132.181Z" fill="#5DBD6D"/>
<path d="M329.338 232.89C329.361 233.06 329.349 233.232 329.304 233.397C329.258 233.562 329.18 233.717 329.073 233.852C328.967 233.988 328.834 234.102 328.683 234.187C328.531 234.272 328.364 234.327 328.191 234.349C328.018 234.371 327.842 234.36 327.673 234.315C327.505 234.271 327.347 234.194 327.208 234.09C327.07 233.985 326.954 233.855 326.867 233.707C326.78 233.559 326.724 233.395 326.701 233.226C326.656 232.883 326.751 232.537 326.966 232.263C327.181 231.99 327.499 231.811 327.848 231.767C328.198 231.722 328.552 231.816 328.831 232.026C329.11 232.237 329.293 232.548 329.338 232.89V232.89Z" fill="#5DBD6D"/>
<path d="M282.574 85.4824C282.61 85.7391 282.567 86.0006 282.452 86.2336C282.336 86.4667 282.152 86.6608 281.923 86.7914C281.695 86.922 281.432 86.9831 281.168 86.9671C280.904 86.951 280.65 86.8585 280.44 86.7013C280.229 86.544 280.072 86.3291 279.986 86.0839C279.901 85.8386 279.892 85.574 279.96 85.3236C280.028 85.0733 280.171 84.8484 280.37 84.6777C280.569 84.5069 280.815 84.3979 281.078 84.3644C281.427 84.3199 281.781 84.4124 282.061 84.6218C282.341 84.8312 282.525 85.1405 282.574 85.4824Z" fill="#5DBD6D"/>
<path d="M447.791 56.2242C447.836 56.5667 447.741 56.9128 447.526 57.1864C447.311 57.46 446.993 57.6387 446.644 57.6832C446.294 57.7277 445.94 57.6343 445.661 57.4236C445.382 57.2129 445.199 56.9021 445.154 56.5596C445.108 56.2172 445.204 55.871 445.419 55.5974C445.634 55.3238 445.951 55.1451 446.301 55.1006C446.651 55.0562 447.004 55.1495 447.284 55.3603C447.563 55.571 447.746 55.8818 447.791 56.2242V56.2242Z" fill="#263238"/>
<path d="M297.644 155.312C297.685 155.489 297.688 155.673 297.652 155.851C297.617 156.029 297.544 156.198 297.438 156.348C297.332 156.497 297.196 156.623 297.038 156.717C296.879 156.812 296.703 156.873 296.519 156.897C296.335 156.922 296.148 156.908 295.97 156.858C295.792 156.807 295.626 156.721 295.484 156.604C295.342 156.488 295.226 156.344 295.144 156.181C295.062 156.018 295.015 155.84 295.007 155.659C294.992 155.332 295.102 155.012 295.317 154.762C295.531 154.511 295.833 154.348 296.164 154.305C296.494 154.261 296.83 154.34 297.104 154.527C297.378 154.713 297.57 154.994 297.644 155.312V155.312Z" fill="#263238"/>
<path d="M420.127 272.379C420.15 272.548 420.138 272.72 420.093 272.885C420.047 273.051 419.969 273.205 419.862 273.341C419.756 273.476 419.623 273.59 419.472 273.675C419.32 273.76 419.153 273.815 418.98 273.837C418.807 273.86 418.631 273.848 418.462 273.803C418.294 273.759 418.136 273.682 417.997 273.578C417.859 273.474 417.743 273.344 417.656 273.195C417.569 273.047 417.513 272.883 417.49 272.714C417.445 272.371 417.54 272.025 417.755 271.752C417.97 271.478 418.288 271.299 418.637 271.255C418.987 271.21 419.341 271.304 419.62 271.515C419.9 271.725 420.082 272.036 420.127 272.379V272.379Z" fill="#455A64"/>
<path d="M231.494 279.903C231.528 280.157 231.484 280.416 231.368 280.645C231.251 280.875 231.068 281.066 230.841 281.194C230.614 281.323 230.354 281.382 230.092 281.365C229.831 281.348 229.58 281.255 229.373 281.099C229.165 280.942 229.01 280.729 228.926 280.486C228.842 280.243 228.833 279.981 228.902 279.733C228.97 279.486 229.111 279.263 229.308 279.094C229.506 278.926 229.75 278.818 230.009 278.785C230.182 278.761 230.358 278.772 230.526 278.815C230.695 278.859 230.853 278.935 230.991 279.039C231.129 279.143 231.245 279.273 231.331 279.421C231.417 279.57 231.473 279.733 231.494 279.903V279.903Z" fill="#5DBD6D"/>
<path d="M105.532 277.261C105.602 277.771 105.516 278.291 105.284 278.753C105.052 279.216 104.686 279.601 104.231 279.859C103.776 280.118 103.253 280.238 102.728 280.206C102.203 280.174 101.7 279.989 101.281 279.677C100.863 279.364 100.549 278.937 100.379 278.45C100.208 277.963 100.189 277.437 100.324 276.939C100.459 276.441 100.742 275.993 101.136 275.652C101.531 275.312 102.02 275.093 102.541 275.025C102.888 274.977 103.24 274.998 103.579 275.085C103.917 275.172 104.234 275.324 104.513 275.532C104.791 275.74 105.024 276 105.199 276.296C105.374 276.593 105.487 276.921 105.532 277.261V277.261Z" fill="#5DBD6D"/>
<path d="M353.52 56.0453C353.59 56.5559 353.503 57.0753 353.272 57.5378C353.04 58.0004 352.674 58.3853 352.219 58.6439C351.764 58.9025 351.241 59.0232 350.716 58.9908C350.191 58.9583 349.687 58.7742 349.269 58.4616C348.851 58.149 348.537 57.7221 348.367 57.2347C348.196 56.7473 348.177 56.2214 348.312 55.7235C348.447 55.2255 348.729 54.7779 349.124 54.4372C349.518 54.0965 350.007 53.878 350.529 53.8093C350.875 53.7637 351.227 53.7854 351.565 53.8731C351.903 53.9607 352.22 54.1128 352.497 54.3204C352.775 54.5281 353.009 54.7873 353.184 55.0832C353.359 55.3792 353.474 55.7061 353.52 56.0453Z" fill="#5DBD6D"/>
<path d="M534.359 320L539.12 318.512C539.12 318.512 535.874 316.956 535.874 312.116C535.874 307.275 540.332 305.411 538.413 301L533.104 302.341C533.701 303.492 534.031 304.747 534.074 306.024C534.116 307.301 533.869 308.573 533.349 309.756C531.993 312.518 530.666 315.83 534.359 320Z" fill="#5DBD6D"/>
<path d="M182.079 51.0982L176.326 48.9999C176.326 48.9999 178.069 53.0566 174.129 57.9525C170.19 62.8484 164.419 61.4496 162.641 67.2722L168.69 69.9999C169.073 68.3768 169.793 66.8528 170.802 65.5272C171.811 64.2016 173.087 63.1041 174.548 62.3064C178.226 60.5403 182.114 58.1798 182.079 51.0982Z" fill="#455A64"/>
<path d="M576.358 216.364L572.636 215C572.636 215 573.777 217.594 571.197 220.724C568.617 223.854 564.838 222.96 563.673 226.683L567.635 228.427C567.886 227.389 568.357 226.415 569.018 225.567C569.679 224.72 570.515 224.018 571.471 223.508C573.857 222.379 576.415 220.869 576.358 216.364Z" fill="#455A64"/>
<path d="M671.5 479.364L667.778 478C667.778 478 668.92 480.594 666.34 483.724C663.76 486.854 659.98 485.96 658.816 489.683L662.778 491.427C663.028 490.389 663.5 489.415 664.16 488.567C664.821 487.72 665.657 487.018 666.614 486.508C669 485.379 671.557 483.869 671.5 479.364Z" fill="#455A64"/>
<path d="M480.627 295.689L481.163 291.832C481.163 291.832 478.88 293.509 475.147 291.72C471.413 289.931 471.562 286.13 467.543 285.851L466.687 290.021C467.769 290.038 468.836 290.277 469.819 290.722C470.802 291.166 471.68 291.807 472.395 292.603C474.051 294.604 476.151 296.706 480.627 295.689Z" fill="#455A64"/>
<path d="M464.552 117.491L465.088 113.645C465.088 113.645 462.805 115.322 459.071 113.533C455.338 111.744 455.486 107.943 451.468 107.664L450.611 111.834C451.693 111.85 452.759 112.088 453.742 112.53C454.725 112.973 455.603 113.612 456.32 114.405C457.998 116.406 460.076 118.508 464.552 117.491Z" fill="#5DBD6D"/>
<path d="M671.092 14.9717L665.668 11.9999C665.668 11.9999 661.222 18.6418 666.557 21.9999C666.542 22.0148 665.446 17.6909 671.092 14.9717Z" fill="#5DBD6D"/>
<path d="M666.117 28.9999L672.112 27.1565C672.112 27.1565 672.469 22.8896 665.977 22.0001C666.008 21.9743 670.077 25.8416 666.117 28.9999Z" fill="#5DBD6D"/>
<path d="M310.34 267.202L314.736 265.592C314.736 265.592 314.998 261.903 310.169 261.12C310.226 261.12 313.217 264.474 310.34 267.202Z" fill="#455A64"/>
<path d="M477.053 108.11C476.983 107.599 477.069 107.079 477.301 106.616C477.533 106.153 477.9 105.768 478.355 105.509C478.811 105.251 479.335 105.13 479.86 105.164C480.386 105.197 480.89 105.382 481.308 105.695C481.726 106.009 482.039 106.437 482.208 106.925C482.378 107.414 482.395 107.94 482.259 108.438C482.122 108.936 481.838 109.384 481.442 109.723C481.045 110.063 480.555 110.28 480.033 110.346C479.335 110.435 478.63 110.25 478.071 109.831C477.513 109.412 477.147 108.793 477.053 108.11V108.11Z" fill="#263238"/>
<path d="M508.074 265.424C508.04 265.169 508.084 264.911 508.2 264.681C508.316 264.451 508.499 264.26 508.726 264.132C508.953 264.004 509.214 263.945 509.475 263.962C509.736 263.979 509.987 264.071 510.194 264.228C510.402 264.384 510.558 264.597 510.642 264.84C510.725 265.083 510.734 265.345 510.666 265.593C510.598 265.841 510.456 266.063 510.259 266.232C510.062 266.401 509.818 266.509 509.558 266.542C509.21 266.586 508.858 266.493 508.579 266.284C508.301 266.074 508.119 265.765 508.074 265.424V265.424Z" fill="#5DBD6D"/>
<path d="M662.811 267.615L656.474 269.37C656.474 269.37 653.449 261.611 659.74 259.42C659.74 259.375 657.593 263.557 662.811 267.615Z" fill="#455A64"/>
<path d="M661.772 251.226L667.217 254.702C667.217 254.702 666.418 259.767 659.739 259.42C659.739 259.376 664.808 255.787 661.772 251.226Z" fill="#455A64"/>
<path d="M459.209 205.03L452.838 206.83C452.838 206.83 449.824 199.071 456.103 196.88C456.103 196.835 453.968 200.972 459.209 205.03Z" fill="#263238"/>
<path d="M458.147 188.64L463.593 192.117C463.593 192.117 462.793 197.182 456.103 196.835C456.103 196.835 461.184 193.202 458.147 188.64Z" fill="#263238"/>
<path d="M242.819 241.678L236.471 243.434C236.471 243.434 233.457 235.675 239.736 233.483C239.736 233.483 237.59 237.62 242.819 241.678Z" fill="#263238"/>
<path d="M509.17 192.542L513.36 194.778C513.36 194.778 516.785 189.769 512.675 187.254C512.675 187.243 513.508 190.485 509.17 192.542Z" fill="#455A64"/>
<path d="M512.561 181.116L508.154 182.726C508.154 182.726 507.902 186.415 512.72 187.198C512.675 187.243 509.684 183.889 512.561 181.116Z" fill="#455A64"/>
<path d="M363.499 172.865L367.689 175.101C367.689 175.101 371.114 170.104 367.004 167.577C367.004 167.566 367.871 170.819 363.499 172.865Z" fill="#5DBD6D"/>
<path d="M366.889 161.473L362.482 163.071C362.482 163.071 362.231 166.772 367.049 167.543C367.003 167.566 364.012 164.223 366.889 161.473Z" fill="#5DBD6D"/>
<path d="M0.675293 499.534L79.2049 499.265L157.735 499.165L314.794 498.975L471.853 499.165L550.383 499.265L628.912 499.534L550.383 499.813L471.853 499.903L314.794 500.093L157.735 499.903L79.2049 499.802L0.675293 499.534Z" fill="#BFBFBF"/>
<path d="M436.02 238.603C419.077 249.247 389.986 256.268 367.277 254.311C363.705 254.054 360.161 253.504 356.682 252.668C352.012 251.55 347.468 250.287 343.084 249.113C313.902 241.287 288.716 234.579 245.285 246.172C193.417 260.013 181.851 266.296 180.847 266.43L188.507 258.258L178.346 252.053C178.586 252.053 190.323 245.714 241.335 232.097C288.67 219.474 316.973 227.043 346.943 235.048C351.282 236.166 355.757 237.407 360.301 238.548C362.063 238.98 363.846 239.324 365.644 239.576C387.246 242.617 418.529 235.104 431.441 225.042C432.798 224.029 433.919 222.745 434.73 221.274L434.946 236.926C435.232 237.161 435.529 237.754 436.02 238.603Z" fill="#5DBD6D"/>
<path opacity="0.2" d="M436.02 238.603C419.077 249.247 389.986 256.268 367.277 254.311C363.705 254.054 360.161 253.504 356.682 252.668C352.012 251.55 347.468 250.287 343.084 249.113C313.902 241.287 288.716 234.579 245.285 246.172C193.417 260.013 181.851 266.296 180.847 266.43L188.507 258.258L178.346 252.053C178.586 252.053 190.323 245.714 241.335 232.097C288.67 219.474 316.973 227.043 346.943 235.048C351.282 236.166 355.757 237.407 360.301 238.548C362.063 238.98 363.846 239.324 365.644 239.576C387.246 242.617 418.529 235.104 431.441 225.042C432.798 224.029 433.919 222.745 434.73 221.274L434.946 236.926C435.232 237.161 435.529 237.754 436.02 238.603Z" fill="black"/>
<path d="M432.629 215.841C432.629 215.841 432.892 253.428 425.379 261.545C425.379 261.545 375.817 350.885 349.113 355.96C326.495 360.265 244.144 300.552 244.144 300.552L270.186 261.266C270.186 261.266 284.583 268.13 304.221 278.628C320.433 287.304 334.362 297.131 334.784 296.404C340.927 285.582 365.976 254.826 365.485 252.802C360.062 230.297 376.457 215.908 376.457 215.908L432.629 215.841Z" fill="#263238"/>
<path d="M425.368 261.545C425.368 261.545 413.197 283.502 397.658 306.265L365.473 252.769C360.073 230.274 376.468 215.875 376.468 215.875H432.64C432.64 215.875 432.88 253.428 425.368 261.545Z" fill="#37474F"/>
<path d="M169.43 293.251C170.172 290.535 213.363 227.077 216.582 225.691C217.793 225.143 270.243 261.265 270.243 261.265L244.223 300.395L210.817 279.31C210.817 279.31 183.895 295.935 180.196 297.097C176.497 298.26 168.676 295.957 169.43 293.251Z" fill="#FFCCB3"/>
<path d="M169.441 293.251C170.183 290.534 213.363 227.077 216.571 225.69C217.153 225.422 233.697 236.446 243.572 243.086L216.822 283.167L210.76 279.354C210.76 279.354 183.895 295.923 180.196 297.097C176.497 298.271 168.676 295.945 169.441 293.251Z" fill="#EBEBEB"/>
<path d="M169.281 293.541C170.035 290.847 213.066 226.573 216.251 225.176C217.462 224.639 227.269 231.079 237.681 239.117L210.657 280.014C210.657 280.014 183.678 296.202 180.013 297.387C176.349 298.572 168.539 296.269 169.281 293.541Z" fill="#5DBD6D"/>
<path d="M172.478 294.325C179.956 283.905 209.07 241.187 215.646 230.331C215.646 230.241 215.646 230.197 215.578 230.331C207.951 240.493 179.18 283.447 172.307 294.247C172.158 294.437 172.329 294.538 172.478 294.325Z" fill="#263238"/>
<path d="M185.094 294.817C185.929 293.66 186.508 292.346 186.795 290.958C187.082 289.571 187.07 288.139 186.761 286.756C186.232 284.26 184.739 282.061 182.593 280.618C182.593 280.618 182.456 280.685 182.513 280.741C184.413 282.496 185.678 284.808 186.119 287.329C186.559 289.85 186.152 292.442 184.957 294.716C184.911 294.817 185.037 294.906 185.094 294.817Z" fill="#263238"/>
<path d="M207.312 282.619C210.257 278.426 212.073 272.557 210.326 267.571C210.257 267.381 209.983 267.47 209.96 267.638C209.423 272.641 208.34 277.573 206.729 282.351C206.714 282.422 206.724 282.496 206.758 282.561C206.791 282.626 206.846 282.678 206.913 282.709C206.98 282.74 207.056 282.748 207.128 282.732C207.2 282.715 207.265 282.676 207.312 282.619Z" fill="#263238"/>
<path d="M203.784 285.09C206.729 280.898 208.545 275.028 206.798 270.031C206.729 269.841 206.455 269.941 206.433 270.109C205.894 275.112 204.811 280.044 203.202 284.822C203.187 284.893 203.197 284.967 203.23 285.032C203.263 285.097 203.318 285.149 203.385 285.18C203.452 285.211 203.528 285.219 203.6 285.203C203.673 285.187 203.737 285.147 203.784 285.09Z" fill="#263238"/>
<path d="M200.256 287.471C203.201 283.267 205.017 277.409 203.27 272.412C203.201 272.222 202.927 272.322 202.905 272.49C202.366 277.489 201.283 282.418 199.674 287.192C199.655 287.264 199.662 287.34 199.693 287.408C199.725 287.476 199.78 287.531 199.848 287.563C199.917 287.596 199.995 287.605 200.069 287.588C200.143 287.571 200.209 287.53 200.256 287.471V287.471Z" fill="#263238"/>
<path d="M196.728 289.898C199.674 285.694 201.489 279.78 199.742 274.838C199.674 274.648 199.4 274.749 199.377 274.917C198.838 279.916 197.755 284.845 196.146 289.618C196.127 289.691 196.134 289.767 196.166 289.835C196.197 289.902 196.252 289.957 196.321 289.99C196.389 290.023 196.467 290.032 196.541 290.015C196.615 289.998 196.681 289.957 196.728 289.898V289.898Z" fill="#263238"/>
<path d="M224.084 239.721C227.303 234.958 219.745 230.05 216.526 234.824C213.306 239.598 220.864 244.495 224.084 239.721Z" fill="#263238"/>
<path d="M215.749 294.75C219.037 293.777 219.094 289.909 218.112 287.371C216.704 283.926 214.582 280.804 211.879 278.203C211.513 277.823 211.125 277.477 210.737 277.085C210.558 276.953 210.387 276.811 210.223 276.66C210.223 276.66 210.223 276.66 210.223 276.66L210.075 276.571L209.652 276.236C209.635 276.224 209.615 276.217 209.594 276.214C209.574 276.211 209.553 276.213 209.533 276.22C209.513 276.226 209.495 276.237 209.48 276.251C209.465 276.266 209.454 276.283 209.447 276.303C209.326 276.261 209.195 276.254 209.07 276.282C208.945 276.309 208.83 276.371 208.739 276.459C208.686 276.505 208.645 276.562 208.617 276.626C208.589 276.69 208.576 276.759 208.579 276.828C208.579 278.047 208.579 279.299 208.579 280.551C208.568 280.767 208.568 280.983 208.579 281.199C208.417 284.248 208.78 287.302 209.652 290.233C210.497 292.76 212.655 295.644 215.749 294.75ZM210.041 283.57C210.041 282.519 209.972 281.468 209.938 280.428C209.904 279.388 209.869 278.662 209.824 277.778C209.824 277.655 209.824 277.521 209.824 277.409C209.824 277.298 209.824 277.175 209.824 277.074L210.029 277.32C210.463 277.89 210.885 278.438 211.331 278.986C212.509 280.468 213.603 282.013 214.607 283.614C215.31 284.72 215.935 285.87 216.48 287.058C217.279 288.914 218.055 295.443 213.055 292.782C210.315 291.34 210.2 286.119 210.098 283.547L210.041 283.57Z" fill="#263238"/>
<path d="M209.287 277.365C209.286 277.386 209.29 277.406 209.299 277.425C209.308 277.444 209.321 277.461 209.338 277.474C209.355 277.487 209.374 277.496 209.395 277.5C209.416 277.505 209.437 277.504 209.458 277.499C209.595 277.475 209.729 277.438 209.858 277.387C209.909 277.406 209.966 277.406 210.017 277.387C210.017 277.387 210.017 277.387 210.017 277.387C210.257 277.354 210.491 277.291 210.714 277.197C211.554 276.964 212.374 276.669 213.168 276.314C216.361 275.003 219.268 273.105 221.731 270.724C223.695 268.79 225.225 265.235 222.622 263.054C222.528 262.977 222.429 262.907 222.325 262.842C219.916 261.132 216.913 262.842 215.166 264.72C213.422 266.734 212.002 268.996 210.954 271.428C210.189 273.116 209.469 274.782 208.67 276.47C208.618 276.569 208.595 276.678 208.601 276.789C208.608 276.899 208.645 277.005 208.708 277.097C208.771 277.188 208.858 277.261 208.96 277.309C209.061 277.356 209.174 277.375 209.287 277.365V277.365ZM212.849 271.048C213.991 268.723 216.274 264.005 219.425 263.748C220.147 263.652 220.883 263.74 221.56 264.005C223.981 265.123 221.412 269.181 220.167 270.333C219.181 271.212 218.136 272.027 217.039 272.77C216.217 273.34 215.383 273.888 214.504 274.346C213.1 275.174 211.661 275.923 210.234 276.716C210.143 276.716 210.063 276.828 209.972 276.862C210.027 276.783 210.069 276.696 210.097 276.605C210.234 276.381 210.348 276.18 210.463 275.945C211.273 274.335 212.027 272.68 212.849 271.048Z" fill="#263238"/>
<path d="M599.902 455.127C598.109 457.363 532.666 498.65 529.115 498.729C527.779 498.729 494.441 445.165 494.441 445.165L534.264 419.451L556.3 451.873C556.3 451.873 587.697 447.166 591.556 447.535C595.415 447.904 601.694 452.935 599.902 455.127Z" fill="#FFCCB3"/>
<path d="M599.89 455.126C598.109 457.362 532.655 498.65 529.104 498.728C528.465 498.728 517.79 482.171 511.43 472.221L552.292 445.914L556.288 451.784C556.288 451.784 587.674 447.077 591.544 447.446C595.415 447.815 601.694 452.946 599.89 455.126Z" fill="#EBEBEB"/>
<path d="M600.153 454.914C598.372 457.15 532.734 499.231 529.241 499.265C527.905 499.265 521.546 489.549 515.266 478.112L556.699 451.168C556.699 451.168 588.039 446.842 591.875 447.211C595.711 447.58 601.922 452.723 600.153 454.914Z" fill="#5DBD6D"/>
<path d="M597.538 452.946C586.441 459.587 542.348 487.392 531.89 494.771C531.81 494.838 531.89 494.894 531.89 494.838C543.033 488.499 586.909 460.347 597.607 453.125C597.881 452.969 597.778 452.79 597.538 452.946Z" fill="#263238"/>
<path d="M586.178 447.569C584.946 448.302 583.883 449.276 583.053 450.43C582.224 451.585 581.648 452.894 581.36 454.277C580.833 456.769 581.307 459.364 582.684 461.522C582.684 461.589 582.844 461.522 582.81 461.443C581.783 459.094 581.562 456.481 582.179 453.998C582.797 451.514 584.22 449.294 586.235 447.67C586.349 447.636 586.258 447.513 586.178 447.569Z" fill="#263238"/>
<path d="M560.821 450.073C556.414 452.779 552.338 457.486 551.927 462.707C551.927 462.908 552.201 462.93 552.292 462.774C554.824 458.398 557.829 454.301 561.255 450.554C561.306 450.495 561.334 450.419 561.333 450.341C561.332 450.263 561.302 450.188 561.25 450.13C561.197 450.072 561.125 450.034 561.046 450.024C560.967 450.013 560.887 450.031 560.821 450.073V450.073Z" fill="#263238"/>
<path d="M565.057 449.223C560.638 451.929 556.574 456.647 556.163 461.857C556.163 462.058 556.437 462.08 556.528 461.935C559.056 457.556 562.057 453.456 565.479 449.704C565.525 449.645 565.549 449.572 565.546 449.498C565.544 449.424 565.516 449.353 565.466 449.296C565.417 449.24 565.349 449.202 565.275 449.189C565.2 449.176 565.123 449.188 565.057 449.223Z" fill="#263238"/>
<path d="M569.281 448.385C564.862 451.091 560.798 455.798 560.387 461.019C560.387 461.22 560.661 461.243 560.752 461.086C563.281 456.711 566.282 452.614 569.703 448.866C569.749 448.807 569.773 448.734 569.771 448.66C569.768 448.586 569.74 448.515 569.691 448.458C569.641 448.402 569.573 448.364 569.499 448.351C569.424 448.338 569.347 448.35 569.281 448.385V448.385Z" fill="#263238"/>
<path d="M573.505 447.536C569.087 450.241 565.022 454.959 564.611 460.169C564.611 460.371 564.885 460.393 564.977 460.248C567.505 455.869 570.506 451.768 573.928 448.017C573.974 447.958 573.997 447.885 573.995 447.811C573.993 447.736 573.965 447.665 573.915 447.609C573.866 447.553 573.798 447.515 573.723 447.501C573.649 447.488 573.572 447.5 573.505 447.536V447.536Z" fill="#263238"/>
<path d="M527.985 482.864C523.087 485.972 527.985 493.429 532.917 490.31C537.849 487.191 532.883 479.745 527.985 482.864Z" fill="#263238"/>
<path d="M558.035 435.662C554.61 435.26 553 438.793 552.863 441.51C552.755 445.215 553.427 448.903 554.838 452.343C555.021 452.835 555.238 453.304 555.454 453.763C555.569 453.953 555.66 454.154 555.751 454.344L555.854 454.49L556.105 454.959C556.118 454.975 556.135 454.988 556.153 454.998C556.172 455.007 556.193 455.011 556.214 455.011C556.235 455.011 556.255 455.007 556.274 454.998C556.293 454.988 556.309 454.975 556.322 454.959C556.416 455.047 556.534 455.106 556.662 455.13C556.789 455.154 556.921 455.141 557.041 455.093C557.108 455.072 557.168 455.037 557.219 454.99C557.271 454.944 557.311 454.888 557.338 454.825C557.806 453.707 558.332 452.589 558.845 451.404C558.948 451.214 559.028 451.024 559.119 450.822C560.508 448.087 561.419 445.143 561.814 442.113C562.042 439.542 561.243 436.02 558.035 435.662ZM558.663 448.139C558.275 449.123 557.864 450.096 557.521 451.057C557.178 452.019 556.859 452.712 556.539 453.539C556.539 453.651 556.448 453.785 556.414 453.886L556.299 454.199C556.299 454.098 556.242 453.998 556.219 453.897C556.197 453.796 556.219 453.897 556.219 453.897C556.048 453.215 555.9 452.544 555.717 451.862C555.227 450.045 554.846 448.2 554.575 446.339C554.387 445.05 554.284 443.751 554.267 442.449C554.267 440.436 556.231 434.153 559.725 438.536C561.608 440.906 559.61 445.747 558.663 448.139V448.139Z" fill="#263238"/>
<path d="M556.882 454.121C556.891 454.102 556.895 454.081 556.895 454.061C556.894 454.04 556.889 454.019 556.879 454.001C556.869 453.982 556.855 453.966 556.837 453.954C556.82 453.942 556.8 453.934 556.779 453.931C556.642 453.916 556.504 453.916 556.368 453.931C556.343 453.919 556.316 453.913 556.288 453.913C556.26 453.913 556.233 453.919 556.208 453.931C556.208 453.931 556.208 453.931 556.208 453.931C555.976 453.874 555.739 453.844 555.5 453.842C554.634 453.723 553.76 453.67 552.886 453.685C549.43 453.631 545.996 454.227 542.77 455.44C540.19 456.447 537.335 459.107 538.831 462.148C538.885 462.256 538.946 462.361 539.014 462.461C540.532 464.966 543.992 464.552 546.344 463.579C548.777 462.405 551.01 460.87 552.966 459.029C554.358 457.788 555.706 456.491 557.087 455.284C557.209 455.225 557.308 455.13 557.37 455.011C557.431 454.893 557.452 454.758 557.429 454.627C557.406 454.496 557.34 454.376 557.241 454.285C557.143 454.194 557.016 454.136 556.882 454.121V454.121ZM551.047 458.526C549.027 460.203 545.008 463.635 542.039 462.651C541.337 462.464 540.699 462.098 540.19 461.589C538.409 459.633 542.473 456.894 544.037 456.324C545.299 455.905 546.589 455.569 547.896 455.317C548.878 455.116 549.872 454.971 550.865 454.848C552.497 454.647 554.119 454.524 555.751 454.345H556.06C555.978 454.402 555.902 454.465 555.831 454.535C555.614 454.691 555.432 454.837 555.226 455.004C553.822 456.145 552.463 457.352 551.047 458.526Z" fill="#263238"/>
<path d="M535.474 420.659L494.475 445.109C494.475 445.109 452.677 402.145 443.098 365.049C440.21 353.869 391.413 284.218 375.041 266.766C353.497 243.791 375.212 215.808 375.212 215.808H434.718L435.015 236.837C439.696 244.272 535.474 420.659 535.474 420.659Z" fill="#263238"/>
<path d="M422.673 226.954C424.978 228.297 427.17 229.819 429.227 231.504C431.31 233.16 433.257 234.973 435.049 236.927C432.742 235.583 430.55 234.058 428.496 232.365C426.413 230.714 424.466 228.904 422.673 226.954Z" fill="#37474F"/>
<path d="M412.558 107.697C411.827 103.225 410.856 98.5182 404.029 96.3493C389.381 91.7096 378.911 111.263 362.002 117.524C341.634 125.104 333.46 137.145 341.748 144.882C351.008 153.546 368.202 148.716 382.428 124.758C391.333 109.788 399.268 106.009 402.922 106.065C405.559 106.065 409.258 111.297 409.258 111.297L412.558 107.697Z" fill="#263238"/>
<path d="M387.543 116.652C385.956 118.888 384.643 121.359 383.25 123.74C381.857 126.122 380.51 128.526 379.071 130.862C377.633 133.199 376.114 135.502 374.436 137.671C372.803 139.857 370.952 141.88 368.91 143.708C366.906 145.551 364.556 146.997 361.991 147.968C359.36 148.859 356.59 149.298 353.805 149.264C350.989 149.238 348.216 148.58 345.699 147.341C344.427 146.721 343.241 145.944 342.171 145.027C341.642 144.566 341.142 144.073 340.676 143.551C340.19 143.038 339.782 142.458 339.465 141.83C340.042 143.131 340.885 144.303 341.943 145.273C342.964 146.287 344.115 147.166 345.368 147.889C346.646 148.605 348.006 149.168 349.421 149.566C350.839 149.959 352.299 150.192 353.771 150.259C355.231 150.331 356.696 150.267 358.144 150.069L359.228 149.902L360.29 149.689C361.009 149.536 361.718 149.342 362.414 149.108C365.145 148.1 367.65 146.581 369.789 144.636C373.874 140.767 377.301 136.283 379.939 131.354C381.321 128.939 382.576 126.48 383.798 124.009C385.02 121.538 386.219 119.067 387.543 116.652Z" fill="#263238"/>
<path d="M412.592 108.994C412.455 107.091 412.072 105.212 411.45 103.404C410.82 101.639 409.787 100.038 408.43 98.7222C407.073 97.4068 405.427 96.4118 403.618 95.8128C402.72 95.5136 401.795 95.3002 400.855 95.1755C399.927 95.0247 398.986 94.9685 398.046 95.0078C396.173 95.1493 394.338 95.607 392.623 96.3606C390.894 97.1552 389.253 98.1218 387.725 99.245C384.62 101.481 381.743 104.075 378.763 106.568C375.796 109.123 372.635 111.455 369.309 113.544C365.897 115.494 362.335 117.184 358.657 118.598C355.014 119.941 351.467 121.521 348.039 123.327C346.332 124.244 344.751 125.371 343.335 126.681L342.308 127.676C341.988 128.045 341.703 128.425 341.394 128.794L340.938 129.353L340.55 129.956L339.785 131.186C341.479 127.662 344.216 124.717 347.64 122.734C351.037 120.788 354.561 119.063 358.189 117.569C361.752 116.065 365.208 114.328 368.533 112.37C371.781 110.298 374.865 107.988 377.758 105.461C380.749 103.002 383.627 100.385 386.892 98.1382C388.519 96.9841 390.263 95.9987 392.098 95.1979C393.969 94.4061 395.975 93.9625 398.012 93.8898C399.032 93.8851 400.05 93.9825 401.049 94.1805C402.041 94.3569 403.015 94.6188 403.96 94.9631C405.861 95.6402 407.569 96.7525 408.941 98.2072C410.314 99.6619 411.311 101.417 411.85 103.326C412.37 105.171 412.62 107.08 412.592 108.994V108.994Z" fill="#263238"/>
<path d="M417.239 107.954C417.102 106.568 415.869 104.913 414.955 104.779C414.042 104.645 407.625 108.289 407.249 110.056C406.872 111.822 410.069 112.952 410.069 112.952L417.239 107.954Z" fill="#5DBD6D"/>
<path d="M428.484 155.983C436.716 138.095 444.685 124.109 457.027 102.934C463.444 91.9107 474.61 74.1568 477.475 69.3941C481.254 63.1781 508.245 87.2821 505.196 91.1951C503.21 93.7777 491.895 109.81 480.969 121.146C466.937 135.68 456.582 149.186 440.918 164.212C429.078 175.604 423.05 167.8 428.484 155.983Z" fill="#FFCCB3"/>
<path d="M497.604 98.8534C504.374 96.282 524.914 82.0834 528.316 78.4611C531.718 74.8388 540.749 63.5246 538.146 60.6849C535.543 57.8452 532.632 60.9309 532.632 60.9309C532.632 60.9309 536.057 55.1285 532.78 52.9595C530.177 51.2378 525.85 55.3744 525.85 55.3744C525.85 55.3744 529.275 48.8229 525.736 47.0789C522.528 45.4801 519.011 51.1037 519.011 51.1037C519.011 51.1037 521.294 45.3348 517.869 44.3957C513.793 43.2777 509.877 53.2279 505.767 57.0067C504.842 57.8676 478.857 73.2289 478.857 73.2289L497.604 98.8534Z" fill="#FFCCB3"/>
<path d="M518.851 50.8019C515.118 57.9795 513.359 60.8639 507 65.4477C506.874 65.5371 507 65.7384 507.114 65.6489C513.77 61.7024 516.111 58.4602 519.228 50.9249C519.376 50.5559 519.034 50.4665 518.851 50.8019Z" fill="#263238"/>
<path d="M525.77 55.3633C522.002 62.7198 519.205 65.5036 512.869 70.8029C512.777 70.8812 512.869 71.0265 512.994 70.9594C519.627 66.275 523.27 63.2564 525.998 55.4304C526.158 55.0727 525.941 55.0279 525.77 55.3633Z" fill="#263238"/>
<path d="M532.278 61.1993C528.156 68.0638 525.268 71.4402 518.474 75.8228C518.448 75.8451 518.431 75.8756 518.426 75.9091C518.42 75.9426 518.427 75.9769 518.444 76.006C518.462 76.0352 518.49 76.0575 518.522 76.0689C518.555 76.0804 518.59 76.0803 518.623 76.0687C525.998 72.2675 529.629 68.0862 532.483 61.3447C532.712 60.8863 532.575 60.7633 532.278 61.1993Z" fill="#263238"/>
<path d="M473.925 75.7891C473.925 75.7891 476.722 65.0004 487.18 61.0315C491.393 59.4216 497.296 47.1571 501.189 47.4031C505.539 47.6826 502.422 58.7843 497.124 64.7544C497.124 64.7544 504.192 75.7555 499.408 81.7257C498.369 83.0225 490.776 87.1256 488.881 86.7455L473.925 75.7891Z" fill="#FFCCB3"/>
<path d="M496.805 65.5483C499.716 69.7408 501.737 76.1022 499.67 80.7308C499.655 80.7575 499.652 80.7889 499.66 80.8183C499.669 80.8476 499.689 80.8725 499.716 80.8873C499.743 80.9021 499.775 80.9057 499.805 80.8973C499.835 80.889 499.861 80.8693 499.876 80.8426C502.787 76.1805 500.504 68.7905 497.684 65.1906C497.136 64.5086 496.051 64.475 496.805 65.5483Z" fill="#263238"/>
<path d="M436.465 206.629L434.684 215.841H376.457C376.457 215.841 385.59 169.12 406.883 155.257C417.547 148.325 427.274 151.366 432.001 159.147C433.2 161.115 445.382 181.731 445.039 191.569C444.72 200.335 436.465 206.629 436.465 206.629Z" fill="#FFCCB3"/>
<path d="M445.051 191.614C444.742 199.786 437.447 205.846 436.545 206.573L379.779 202.827C381.103 198.288 382.816 192.967 384.996 187.477C390.637 187.676 396.284 187.426 401.882 186.728C404.36 186.27 409.874 178.187 416.93 179.014C423.986 179.841 431.042 186.728 431.042 186.728C434.139 183.482 438.153 181.213 442.573 180.21C444.08 184.47 445.165 188.573 445.051 191.614Z" fill="#263238"/>
<path d="M432.013 159.136C431.711 158.633 431.379 158.148 431.019 157.683C432.698 162.445 435.872 172.943 431.784 173.983C427.297 175.101 416.006 157.962 412.512 152.473C410.531 153.174 408.645 154.109 406.895 155.256C390.557 165.71 376.868 203.465 375.189 215.807H434.696L436.465 206.595C436.465 206.595 444.72 200.301 445.051 191.58C445.393 181.731 433.211 161.115 432.013 159.136ZM409.829 181.999C406.815 188.383 399.953 193.336 395.386 192.732C391.653 192.229 389.906 187.265 391.39 180.926C393.948 170.126 404.828 154.206 409.783 154.586C415.469 155.022 414.83 171.367 409.829 181.999Z" fill="#455A64"/>
<path d="M417.638 198.892C420.825 199.423 423.958 200.228 427 201.296C428.519 201.855 429.992 202.503 431.476 203.174C432.207 203.521 432.949 203.823 433.759 204.124C434.523 204.47 435.335 204.703 436.168 204.818C436.237 204.818 436.225 204.952 436.168 204.952C435.38 204.95 434.594 204.887 433.816 204.762C433.063 204.603 432.323 204.39 431.601 204.124C430.06 203.577 428.542 202.939 427.035 202.369C423.929 201.251 420.835 200.133 417.673 199.194C417.433 199.161 417.49 198.859 417.638 198.892Z" fill="#263238"/>
<path d="M409.555 201.754C412.197 201.581 414.848 201.581 417.49 201.754C418.814 201.855 420.116 202.045 421.429 202.269C422.045 202.381 422.673 202.504 423.29 202.638C423.906 202.772 424.637 203.04 425.322 203.174C425.402 203.174 425.391 203.32 425.322 203.308C424.671 203.197 423.998 203.23 423.347 203.163L421.372 202.984C420.059 202.872 418.746 202.772 417.421 202.638C414.796 202.369 412.17 202.146 409.532 201.989C409.384 202 409.418 201.754 409.555 201.754Z" fill="#263238"/>
<path d="M380.658 196.6C386.302 196.9 391.958 196.9 397.601 196.6C408.482 195.874 420.755 193.939 421.006 194.096C421.463 194.387 442.904 193.895 442.904 193.895L444.56 194.812L444.823 193.694L443.35 192.911C443.871 191.307 443.988 189.604 443.692 187.947C443.19 185.32 439.125 174.531 439.011 174.229C438.897 173.927 431.864 158.331 431.773 158.242C431.681 158.152 431.019 157.672 431.019 157.672L438.029 174.319C435.717 174.818 433.37 175.151 431.008 175.314C428.126 175.178 425.252 174.898 422.399 174.475C422.399 174.475 417.376 161.551 416.577 160.221C415.777 158.89 413.06 152.26 412.786 152.395C412.527 152.479 412.264 152.55 411.998 152.607C411.998 152.607 416.108 162.669 416.702 163.698C417.296 164.726 421.132 175.224 421.132 175.224C421.132 175.224 421.954 183.989 421.988 185.566C421.771 187.899 421.413 190.217 420.915 192.508C420.915 192.508 408.699 194.264 397.91 195.169C388.913 195.941 381.035 195.896 380.921 195.896C380.807 195.896 380.658 196.6 380.658 196.6Z" fill="white"/>
<path d="M427.913 179.841L428.427 190.619C428.427 191.189 428.142 191.636 427.754 191.659C427.365 191.681 427.034 191.256 427.012 190.686L426.578 181.742L426.087 182.178C425.996 182.278 425.869 182.338 425.733 182.346C425.591 182.335 425.456 182.284 425.345 182.198C425.233 182.113 425.149 181.997 425.105 181.865C424.991 181.643 424.947 181.393 424.977 181.147C425.008 180.9 425.112 180.668 425.276 180.479L426.783 179.07C426.783 179.07 426.783 179.07 426.852 179.07H426.92C426.92 179.07 426.92 179.07 426.977 179.07C427.007 179.059 427.039 179.059 427.069 179.07H427.24C427.24 179.07 427.297 179.07 427.32 179.07H427.377C427.377 179.07 427.434 179.126 427.457 179.126C427.476 179.13 427.495 179.13 427.514 179.126V179.182C427.514 179.182 427.514 179.182 427.571 179.249C427.628 179.316 427.571 179.249 427.571 179.327L427.628 179.394C427.628 179.394 427.628 179.45 427.628 179.484C427.628 179.517 427.628 179.562 427.628 179.573C427.631 179.603 427.631 179.633 427.628 179.662C427.611 179.706 427.611 179.753 427.628 179.797L427.913 179.841Z" fill="#263238"/>
<path d="M439.582 179.685L436.899 190.641C436.808 191.021 436.568 191.256 436.271 191.267C436.176 191.275 436.081 191.256 435.997 191.211C435.804 191.059 435.66 190.856 435.582 190.626C435.503 190.397 435.492 190.15 435.552 189.914L437.835 180.412L434.536 180.557C434.147 180.557 433.805 180.11 433.782 179.562C433.759 179.014 434.056 178.544 434.433 178.533L438.828 178.332C438.87 178.322 438.913 178.322 438.954 178.332C439.054 178.358 439.147 178.404 439.228 178.466V178.522C439.236 178.544 439.236 178.567 439.228 178.589L439.285 178.656V178.735C439.287 178.764 439.287 178.794 439.285 178.824V178.913C439.285 178.913 439.285 178.98 439.285 179.003C439.28 179.032 439.28 179.063 439.285 179.092C439.297 179.226 439.297 179.361 439.285 179.495C439.593 179.573 439.593 179.629 439.582 179.685Z" fill="#263238"/>
<path d="M416.862 153.166C417.079 154.429 422.639 162.904 428.484 163.004C430.38 163.004 431.008 152.875 431.008 152.875L431.225 152.126L434.307 141.773L422.216 133.042L420.458 131.924C420.458 131.924 419.807 134.808 419.031 138.419C419.031 138.587 418.963 138.755 418.917 138.934C418.871 139.113 418.826 139.325 418.791 139.515C418.666 140.052 418.54 140.633 418.426 141.147C418.312 141.662 418.255 141.975 418.186 142.411C418.118 142.847 418.026 143.283 417.935 143.73C417.361 146.848 417.003 150.001 416.862 153.166V153.166Z" fill="#FFCCB3"/>
<path d="M419.031 138.397C419.924 141.415 421.478 144.206 423.583 146.577C425.689 148.948 428.296 150.842 431.225 152.126L434.307 141.773L422.217 133.042L420.458 131.924C420.458 131.924 419.808 134.786 419.031 138.397Z" fill="#263238"/>
<path d="M443.281 117.446C452.746 133.97 443.703 141.382 440.061 143.372C436.762 145.183 425.219 150.941 414.122 135.468C403.024 119.995 407.819 110.458 415.161 105.93C422.502 101.402 433.816 100.933 443.281 117.446Z" fill="#FFCCB3"/>
<path d="M438.657 116.093C438.244 116.25 437.821 116.381 437.39 116.484C436.96 116.685 436.474 116.74 436.009 116.641C435.869 116.583 435.753 116.481 435.678 116.352C435.604 116.222 435.576 116.072 435.598 115.925C435.69 115.646 435.855 115.396 436.078 115.2C436.3 115.003 436.572 114.868 436.865 114.807C437.446 114.59 438.088 114.59 438.669 114.807C438.791 114.867 438.894 114.959 438.965 115.074C439.037 115.188 439.074 115.32 439.073 115.454C439.072 115.588 439.032 115.719 438.959 115.832C438.885 115.945 438.781 116.035 438.657 116.093V116.093Z" fill="#263238"/>
<path d="M427.617 122.253C427.979 121.998 428.323 121.718 428.644 121.415C429.052 121.175 429.365 120.809 429.535 120.375C429.563 120.227 429.538 120.075 429.465 119.943C429.393 119.811 429.276 119.707 429.135 119.648C428.844 119.564 428.535 119.559 428.241 119.634C427.948 119.708 427.68 119.86 427.468 120.073C426.959 120.428 426.608 120.96 426.486 121.56C426.467 121.697 426.488 121.836 426.548 121.961C426.608 122.086 426.703 122.192 426.822 122.265C426.942 122.338 427.08 122.376 427.221 122.374C427.362 122.372 427.5 122.33 427.617 122.253V122.253Z" fill="#263238"/>
<path d="M436.865 133.4C437.269 133.615 437.737 133.686 438.189 133.601C438.634 133.392 439.024 133.086 439.331 132.707C439.331 132.707 439.422 132.707 439.411 132.707C439.361 133.011 439.228 133.297 439.028 133.535C438.827 133.773 438.565 133.954 438.269 134.059C437.996 134.111 437.714 134.082 437.458 133.977C437.202 133.871 436.983 133.694 436.83 133.467C436.716 133.444 436.796 133.377 436.865 133.4Z" fill="#263238"/>
<path d="M439.354 126.703C439.354 126.703 440.553 128.257 440.998 129.051C440.998 129.118 440.872 129.263 440.598 129.431C439.97 129.937 439.211 130.263 438.405 130.374C437.599 130.484 436.778 130.375 436.031 130.057C436.015 130.044 436.003 130.027 435.997 130.008C435.991 129.988 435.991 129.968 435.998 129.948C436.004 129.929 436.016 129.912 436.032 129.9C436.048 129.887 436.068 129.879 436.089 129.878C437.514 130.008 438.944 129.683 440.164 128.95C440.096 128.704 438.029 126.356 438.155 126.278C438.813 125.99 439.509 125.791 440.222 125.686C437.835 122.332 434.924 119.47 432.595 116.149C432.575 116.125 432.565 116.094 432.568 116.063C432.57 116.033 432.584 116.004 432.607 115.983C432.63 115.961 432.66 115.95 432.692 115.949C432.724 115.949 432.754 115.961 432.778 115.981C435.996 119 438.899 122.326 441.443 125.909C441.763 126.334 439.799 126.658 439.354 126.703Z" fill="#263238"/>
<path d="M439.65 129.688C439.521 130.425 439.203 131.117 438.726 131.7C438.453 132.008 438.09 132.227 437.687 132.326C436.807 132.528 436.408 131.846 436.225 131.208C436.125 130.844 436.075 130.468 436.077 130.09C437.281 130.337 438.535 130.196 439.65 129.688V129.688Z" fill="#263238"/>
<path d="M438.726 131.678C438.453 131.986 438.091 132.205 437.687 132.304C436.808 132.506 436.408 131.824 436.226 131.186C436.639 130.985 437.109 130.923 437.562 131.013C438.015 131.102 438.424 131.336 438.726 131.678V131.678Z" fill="#FF9CBD"/>
<path d="M430.015 126.055C430.011 126.212 429.977 126.368 429.912 126.513C429.87 126.633 429.801 126.743 429.71 126.834C429.619 126.925 429.509 126.995 429.387 127.038C428.633 127.329 427.937 126.748 427.514 126.055C427.514 126.055 427.514 125.965 427.514 125.987C428.005 126.2 428.553 126.401 428.93 126.133C429.167 125.896 429.329 125.597 429.398 125.272C429.577 125.552 429.783 125.814 430.015 126.055Z" fill="#263238"/>
<path d="M429.523 126.055C429.38 125.699 429.341 125.312 429.409 124.937C429.455 124.738 429.541 124.55 429.663 124.385C429.784 124.22 429.939 124.08 430.117 123.975C430.307 123.882 430.516 123.833 430.728 123.833C430.94 123.833 431.149 123.882 431.339 123.975C431.674 124.129 431.968 124.359 432.195 124.646C432.331 124.815 432.453 124.994 432.56 125.182C432.795 125.571 432.936 126.007 432.971 126.457C432.819 126.169 432.64 125.896 432.435 125.641C432.244 125.412 432.038 125.195 431.818 124.992C431.373 124.59 430.836 124.344 430.448 124.59C430.23 124.731 430.068 124.941 429.989 125.186C429.91 125.43 429.919 125.693 430.014 125.932C430.16 126.539 430.366 127.131 430.631 127.698C430.133 127.244 429.754 126.681 429.523 126.055V126.055Z" fill="#263238"/>
<path d="M440.415 119.715C440.556 119.791 440.705 119.847 440.861 119.883C440.988 119.912 441.12 119.914 441.248 119.889C441.376 119.864 441.497 119.813 441.603 119.738C441.882 119.472 442.054 119.117 442.087 118.737C442.121 118.357 442.014 117.978 441.785 117.669C441.785 117.669 441.717 117.591 441.706 117.669C441.614 118.195 441.489 118.787 441.055 118.91C440.722 118.98 440.376 118.949 440.062 118.821C440.214 119.105 440.333 119.405 440.415 119.715Z" fill="#263238"/>
<path d="M440.667 119.324C440.441 119.031 440.142 118.8 439.799 118.653C439.604 118.582 439.396 118.55 439.188 118.56C438.98 118.569 438.776 118.62 438.589 118.709C438.403 118.807 438.242 118.946 438.119 119.115C437.996 119.283 437.915 119.477 437.881 119.682C437.825 120.057 437.86 120.44 437.984 120.8C438.063 121.001 438.155 121.202 438.246 121.392C438.455 121.797 438.755 122.149 439.125 122.421C438.951 122.14 438.813 121.84 438.714 121.526C438.615 121.249 438.539 120.965 438.486 120.677C438.395 120.084 438.486 119.559 438.897 119.335C439.137 119.234 439.405 119.217 439.656 119.286C439.908 119.355 440.127 119.507 440.278 119.715C440.709 120.164 441.092 120.655 441.42 121.18C441.325 120.511 441.067 119.874 440.667 119.324V119.324Z" fill="#263238"/>
<path d="M422.376 107.328C423.531 108.575 424.275 110.133 424.511 111.8C424.694 116.54 419.499 117.938 418.712 120.252C417.924 122.566 420.047 125.071 419.454 127.173C418.62 130.079 416.599 129.341 416.999 130.806C417.399 132.271 418.734 136.899 417.319 138.308C415.903 139.716 393.194 115.948 415.949 105.416C415.949 105.416 418.358 102.42 424.352 102.521C432.949 102.666 438.657 110.682 438.657 110.682C437.805 110.906 436.914 110.952 436.043 110.816C434.479 110.447 433.565 110.022 432.458 109.821C430.711 109.519 430.311 110.581 428.53 110.324C425.779 109.911 422.376 107.328 422.376 107.328Z" fill="#263238"/>
<path d="M421.669 106.456C422.599 107.363 423.419 108.372 424.112 109.463C424.853 110.49 425.291 111.697 425.379 112.952C425.292 114.209 424.735 115.391 423.815 116.272C422.959 117.2 421.851 117.904 420.949 118.944C420.482 119.475 420.17 120.12 420.047 120.811C419.992 121.491 420.073 122.175 420.287 122.823C420.756 123.984 420.891 125.249 420.675 126.479C420.518 127.073 420.233 127.626 419.839 128.102C419.445 128.579 418.952 128.967 418.392 129.241C417.25 129.822 415.857 130.146 415.024 131.197C415.949 130.213 417.307 130.079 418.518 129.509C419.152 129.246 419.72 128.849 420.179 128.347C420.639 127.844 420.98 127.249 421.178 126.602C421.477 125.294 421.374 123.929 420.881 122.678C420.698 122.1 420.628 121.493 420.675 120.889C420.796 120.308 421.071 119.767 421.475 119.324C422.274 118.374 423.381 117.636 424.283 116.641C424.75 116.147 425.135 115.585 425.425 114.975C425.743 114.363 425.896 113.682 425.87 112.996C425.727 111.669 425.209 110.407 424.375 109.352C423.595 108.283 422.686 107.311 421.669 106.456V106.456Z" fill="#263238"/>
<path d="M422.673 107.228C423.454 108.162 424.361 108.99 425.368 109.687C426.392 110.436 427.619 110.872 428.896 110.939C429.518 110.933 430.137 110.865 430.745 110.738C431.295 110.644 431.86 110.702 432.378 110.906C432.903 111.221 433.457 111.487 434.033 111.7C434.636 111.864 435.268 111.891 435.883 111.778C435.285 111.771 434.695 111.646 434.148 111.409C433.603 111.156 433.087 110.848 432.606 110.492C432.014 110.188 431.339 110.075 430.677 110.168C430.097 110.276 429.509 110.332 428.919 110.336C427.746 110.244 426.618 109.859 425.642 109.218C424.611 108.616 423.619 107.951 422.673 107.228V107.228Z" fill="#263238"/>
<path d="M417.992 134.775C417.992 134.775 411.85 130.795 409.863 133.154C407.877 135.513 414.031 142.333 417.467 142.266C417.907 142.287 418.347 142.22 418.76 142.071C419.174 141.921 419.552 141.691 419.872 141.394C420.192 141.097 420.447 140.74 420.623 140.345C420.798 139.949 420.89 139.522 420.892 139.091L417.992 134.775Z" fill="#FFCCB3"/>
<path d="M411.679 135.065C411.622 135.065 411.679 135.155 411.679 135.155C414.111 135.155 415.983 136.653 417.558 138.319C417.354 138.16 417.116 138.047 416.862 137.987C416.608 137.927 416.344 137.922 416.087 137.972C415.831 138.022 415.589 138.126 415.378 138.276C415.167 138.427 414.991 138.621 414.864 138.844C414.864 138.911 414.864 138.967 414.967 138.934C415.286 138.683 415.676 138.534 416.084 138.506C416.492 138.478 416.899 138.573 417.25 138.777C417.842 139.136 418.393 139.556 418.894 140.029C419.066 140.175 419.362 139.94 419.203 139.761C418.209 137.078 414.681 134.216 411.679 135.065Z" fill="#263238"/>
<path d="M445.508 122.063C446.721 124.446 447.457 127.034 447.677 129.688C447.791 131.024 447.734 132.369 447.506 133.691C447.394 134.355 447.241 135.012 447.049 135.658C446.833 136.303 446.577 136.933 446.284 137.548C445.681 138.761 444.913 139.89 444.001 140.902C443.065 141.883 442.002 142.74 440.838 143.451C438.515 144.848 435.876 145.662 433.154 145.821C434.471 145.587 435.757 145.212 436.99 144.703C439.447 143.764 441.648 142.279 443.418 140.365C444.28 139.409 445.002 138.34 445.565 137.19C446.693 134.866 447.211 132.303 447.072 129.733C447.043 128.437 446.894 127.146 446.627 125.876C446.356 124.578 445.982 123.304 445.508 122.063Z" fill="#263238"/>
<path d="M402.99 170.025C402.716 169.589 402.442 169.153 402.157 168.717C403.938 170.483 405.787 172.16 407.706 173.782C407.706 173.782 407.82 173.782 407.774 173.714C405.89 171.59 403.972 169.511 401.974 167.487C401.027 166.537 400.113 165.553 399.131 164.625C398.149 163.697 396.848 162.602 395.843 161.506C395.718 161.372 395.501 161.506 395.626 161.674C396.619 162.713 397.51 163.843 398.469 164.927C399.428 166.011 400.182 166.761 401.072 167.644C401.24 167.989 401.427 168.324 401.632 168.65C401.974 169.175 402.317 169.69 402.693 170.193C403.447 171.188 404.246 172.16 404.977 173.133C404.315 172.172 403.641 171.054 402.99 170.025Z" fill="#263238"/>
<path d="M410.594 154.418C401.86 135.412 394.541 121.695 381.446 99.2115C374.596 87.5061 365.987 73.4975 362.939 68.4442C358.931 61.8368 330.274 87.3719 333.517 91.5868C335.618 94.3371 342.582 103.214 354.878 117.48C368.899 133.724 380.772 147.241 397.407 163.206C409.966 175.247 416.371 166.962 410.594 154.418Z" fill="#FFCCB3"/>
<path d="M340.607 97.9592C333.414 95.2312 311.619 80.2053 307.999 76.3035C304.38 72.4017 294.801 60.4614 297.564 57.4428C300.327 54.4242 303.421 57.7 303.421 57.7C303.421 57.7 299.791 51.5398 303.261 49.2367C306.024 47.4032 310.614 51.7969 310.614 51.7969C310.614 51.7969 307.006 44.843 310.74 42.9871C314.165 41.2989 317.887 47.2579 317.887 47.2579C317.887 47.2579 315.466 41.1424 319.028 40.125C323.356 38.9176 327.546 49.5162 331.873 53.541C332.855 54.4578 360.416 70.7582 360.416 70.7582L340.607 97.9592Z" fill="#FFCCB3"/>
<path d="M318.035 46.9562C322.008 54.5809 323.881 57.6219 330.594 62.5075C330.72 62.597 330.594 62.8094 330.457 62.72C323.39 58.5275 320.912 55.084 317.601 47.068C317.487 46.6878 317.852 46.5872 318.035 46.9562Z" fill="#263238"/>
<path d="M310.705 51.7858C314.644 59.6118 317.67 62.5521 324.406 68.1757C324.497 68.2539 324.406 68.4216 324.269 68.3545C317.236 63.3683 313.354 60.1596 310.466 51.8529C310.283 51.4839 310.523 51.428 310.705 51.7858Z" fill="#263238"/>
<path d="M303.752 57.9795C308.125 65.2688 311.196 68.8576 318.412 73.5085C318.443 73.5317 318.464 73.5651 318.472 73.6025C318.479 73.64 318.473 73.6788 318.453 73.7118C318.433 73.7447 318.402 73.7695 318.365 73.7815C318.328 73.7935 318.288 73.7918 318.252 73.7768C310.42 69.7408 306.561 65.2912 303.536 58.1248C303.33 57.6441 303.478 57.5211 303.752 57.9795Z" fill="#263238"/>
<path d="M365.747 73.4747C365.747 73.4747 362.779 62.0152 351.681 57.8227C347.194 56.1234 340.926 43.0987 336.839 43.3558C332.272 43.6577 335.526 55.4414 341.155 61.7804C341.155 61.7804 333.642 73.4524 338.757 79.8026C339.899 81.1777 347.891 85.5268 349.923 85.1355L365.747 73.4747Z" fill="#FFCCB3"/>
<path d="M341.451 62.6082C338.369 67.0802 336.211 73.7882 338.415 78.7186C338.431 78.7482 338.435 78.7832 338.425 78.8157C338.416 78.8481 338.393 78.8756 338.363 78.8919C338.333 78.9082 338.297 78.912 338.264 78.9026C338.231 78.8932 338.203 78.8712 338.186 78.8416C335.104 73.8888 337.524 66.0405 340.527 62.2281C341.098 61.4902 342.251 61.4902 341.451 62.6082Z" fill="#263238"/>
<path d="M434.729 218.334C420.892 211.883 381.252 198.702 354.17 192.296C329.932 186.583 304.882 194.823 280.667 202.783C265.356 207.814 250.902 212.565 236.882 213.829C181.863 218.793 163.892 180.512 162.67 178.88L172.832 181.362L174.624 170.249C175.652 171.613 189.101 203.543 235.535 199.317C247.831 198.199 261.486 193.727 275.951 188.964C300.943 180.747 329.269 171.434 357.652 178.12C385.727 184.727 428.804 197.864 438.885 204.314L434.729 218.334Z" fill="#5DBD6D"/>
<path d="M242.477 499.635L253.152 497.745C253.152 497.745 241.734 486.342 248.756 479.321C255.778 472.3 266.258 478.505 266.258 478.505C266.258 478.505 264.626 461.813 277.813 458.325C290.999 454.837 302.588 479.779 302.588 479.779C302.588 479.779 304.529 473.921 314.37 476.224C324.212 478.527 331.987 491.652 331.987 491.652L534.31 499.534" fill="white"/>
<path d="M138.032 499.856L151.591 497.916V497.995C148.622 495.61 146.206 492.848 144.448 489.831C143.566 488.311 143.073 486.674 142.997 485.009C142.945 483.319 143.619 481.663 144.913 480.299C145.55 479.626 146.296 479.019 147.134 478.494C147.968 477.959 148.879 477.499 149.849 477.126C151.799 476.404 153.93 476.022 156.092 476.004C160.416 476.015 164.663 476.892 168.417 478.55L168.054 478.729C167.83 476.21 168.045 473.68 168.693 471.205C169.299 468.715 170.511 466.337 172.264 464.196C173.608 462.591 175.362 461.215 177.419 460.152C179.476 459.09 181.793 458.363 184.226 458.017C185.871 457.807 187.552 457.845 189.177 458.129C192.396 458.75 195.381 459.948 197.887 461.628C200.385 463.25 202.657 465.069 204.667 467.055C208.656 471.03 212.064 475.332 214.829 479.884H214.22C215.051 478.392 216.572 477.192 218.488 476.52C220.356 475.871 222.394 475.568 224.44 475.634C228.502 475.703 232.464 476.617 235.909 478.281C239.294 479.952 242.35 481.992 244.982 484.336C247.645 486.647 250.031 489.139 252.11 491.782L251.922 491.693L509.186 499.778L251.907 492.04H251.791V491.962C249.72 489.341 247.339 486.874 244.677 484.594C242.07 482.288 239.043 480.286 235.691 478.651C232.327 477.035 228.459 476.151 224.498 476.094C222.544 476.034 220.6 476.329 218.822 476.957C217.069 477.575 215.677 478.674 214.916 480.041L214.626 480.58L214.307 480.064C211.532 475.561 208.124 471.308 204.144 467.381C202.179 465.418 199.95 463.621 197.495 462.02C195.088 460.388 192.219 459.212 189.119 458.589C187.518 458.304 185.861 458.266 184.241 458.477C182.678 458.694 181.16 459.071 179.726 459.598C176.832 460.663 174.38 462.329 172.641 464.409C170.922 466.506 169.73 468.834 169.128 471.272C168.481 473.705 168.251 476.194 168.446 478.673V479.021L168.054 478.853C164.384 477.216 160.227 476.343 155.99 476.318C153.88 476.344 151.804 476.727 149.907 477.44C148.021 478.161 146.377 479.208 145.102 480.501C143.864 481.799 143.211 483.375 143.244 484.987C143.288 486.62 143.742 488.23 144.579 489.73C146.29 492.741 148.651 495.506 151.562 497.905L151.649 497.973H151.533L138.032 499.856Z" fill="#BFBFBF"/>
<path d="M377.29 209.48C371.582 209.703 365.873 209.815 360.164 209.905C354.456 209.994 348.747 209.994 343.039 210.039C337.33 210.083 331.622 210.039 325.913 209.905L317.339 209.748C314.484 209.659 311.63 209.603 308.776 209.48C311.63 209.357 314.484 209.301 317.339 209.2L325.913 209.044C331.622 208.954 337.33 208.965 343.039 208.921C348.747 208.876 354.456 208.921 360.164 209.055C365.873 209.189 371.57 209.245 377.29 209.48Z" fill="#263238"/>
<path d="M465.499 76.9633C459.79 77.1869 454.082 77.2987 448.373 77.3882C442.665 77.4776 436.956 77.4664 431.247 77.5112C425.539 77.5559 419.83 77.5112 414.122 77.3882L405.547 77.2317C402.693 77.1422 399.839 77.0863 396.973 76.9633C399.839 76.8292 402.682 76.7733 405.547 76.6838L414.122 76.5273C419.83 76.4379 425.539 76.4379 431.247 76.4043C436.956 76.3708 442.665 76.4043 448.373 76.5273C454.082 76.6503 459.779 76.7286 465.499 76.9633Z" fill="#263238"/>
<path d="M474.496 83.7381C470.751 83.9728 467.018 84.0735 463.273 84.1629C459.528 84.2523 455.795 84.2859 452.061 84.2971C448.328 84.3082 444.572 84.2971 440.838 84.1741L435.232 84.0176C433.371 83.9169 431.499 83.8722 429.626 83.7381C431.499 83.6151 433.371 83.5592 435.232 83.4697L440.85 83.3132C444.583 83.2126 448.328 83.1902 452.073 83.1791C455.817 83.1679 459.551 83.1791 463.284 83.3132C467.018 83.4474 470.751 83.5145 474.496 83.7381Z" fill="#263238"/>
<path d="M229.872 290.904C224.86 291.127 219.836 291.239 214.824 291.329C209.812 291.418 204.788 291.418 199.776 291.463C194.764 291.508 189.741 291.463 184.717 291.329L177.205 291.172C174.693 291.083 172.181 291.027 169.681 290.904C172.181 290.781 174.693 290.725 177.205 290.624L184.728 290.468C189.752 290.378 194.764 290.39 199.788 290.345C204.811 290.3 209.823 290.345 214.835 290.479C219.848 290.613 224.86 290.68 229.872 290.904Z" fill="#263238"/>
<path d="M263.039 280.831C258.015 281.054 253.003 281.166 247.98 281.256C242.956 281.345 237.944 281.345 232.932 281.39C227.92 281.435 222.896 281.39 217.872 281.256L210.349 281.099C207.837 281.01 205.336 280.954 202.825 280.831C205.336 280.697 207.837 280.652 210.349 280.551L217.872 280.395C222.896 280.305 227.908 280.317 232.932 280.272C237.955 280.227 242.967 280.272 247.98 280.395C252.992 280.518 258.015 280.618 263.039 280.831Z" fill="#263238"/>
<path d="M387.577 223.868C379.585 224.102 371.593 224.203 363.601 224.292L339.625 224.427L315.649 224.304L303.684 224.147C299.688 224.046 295.692 224.002 291.707 223.868C295.703 223.745 299.699 223.689 303.684 223.599L315.649 223.443L339.625 223.309L363.601 223.443C371.627 223.532 379.596 223.599 387.577 223.868Z" fill="#263238"/>
<path d="M510.094 479.51C504.317 479.745 498.54 479.846 492.763 479.935C486.986 480.025 481.198 480.025 475.42 480.069C469.643 480.114 463.866 480.069 458.089 479.935L449.412 479.779C446.524 479.689 443.635 479.633 440.747 479.51C443.635 479.387 446.524 479.331 449.412 479.231L458.089 479.074C463.866 478.996 469.643 478.996 475.42 478.951C481.198 478.907 486.986 478.951 492.763 479.085C498.54 479.22 504.317 479.276 510.094 479.51Z" fill="#BFBFBF"/>
<path d="M493.3 486.811C485.137 487.046 476.962 487.158 468.799 487.247L444.286 487.37L419.785 487.247L407.534 487.09C403.447 487.001 399.371 486.945 395.284 486.811C399.371 486.688 403.447 486.632 407.534 486.543L419.785 486.386L444.286 486.252L468.799 486.386C476.962 486.476 485.137 486.587 493.3 486.811Z" fill="#BFBFBF"/>
<path d="M338.609 214.935C331.758 215.159 324.828 215.271 317.944 215.36C311.059 215.45 304.163 215.438 297.279 215.494C290.394 215.55 283.498 215.494 276.602 215.36L266.27 215.204C262.844 215.114 259.419 215.058 255.994 214.935C259.419 214.801 262.844 214.745 266.27 214.656L276.602 214.499C283.452 214.41 290.383 214.421 297.279 214.376C304.174 214.332 311.048 214.376 317.944 214.499C324.84 214.622 331.724 214.656 338.609 214.935Z" fill="#263238"/>
</svg>
