<svg width="50" height="50" fill="none" xmlns="http://www.w3.org/2000/svg"><rect width="50" height="50" rx="25" fill="#FDF3E3"/><g clip-path="url(#clip0_1_2226)"><path d="M26.587 32.116l-5.949-3.244a5.666 5.666 0 110-7.742l5.95-3.244a5.667 5.667 0 111.359 2.486l-5.95 3.244c.228.909.228 1.86 0 2.768l5.948 3.244a5.667 5.667 0 11-1.358 2.486v.002zM16.5 27.833a2.833 2.833 0 100-5.666 2.833 2.833 0 000 5.666zm15.583-8.5a2.834 2.834 0 100-5.667 2.834 2.834 0 000 5.667zm0 17a2.834 2.834 0 100-5.667 2.834 2.834 0 000 5.667z" fill="#F0B14E"/></g><defs><clipPath id="clip0_1_2226"><path fill="#fff" transform="translate(8 8)" d="M0 0h34v34H0z"/></clipPath></defs></svg>