<svg width="50" height="50" fill="none" xmlns="http://www.w3.org/2000/svg"><rect width="50" height="50" rx="25" fill="#FDF3E3"/><g clip-path="url(#clip0_1_2210)"><path d="M31.375 12.25c4.304 0 7.791 3.542 7.791 8.5 0 9.917-10.624 15.583-14.166 17.708-2.8-1.68-10.034-5.577-12.936-12.04l-2.648-.001v-2.834h1.715a13.505 13.505 0 01-.298-2.833c0-4.958 3.542-8.5 7.792-8.5 2.635 0 4.958 1.417 6.375 2.833 1.416-1.416 3.74-2.833 6.375-2.833zm0 2.833c-1.524 0-3.174.808-4.372 2.004L25 19.09l-2.003-2.003c-1.199-1.196-2.848-2.004-4.372-2.004-2.748 0-4.959 2.346-4.959 5.667 0 .97.128 1.915.379 2.833h3.07l2.927-4.879 4.25 7.084 1.323-2.205h6.468v2.834h-4.865l-2.927 4.879-4.25-7.084-1.323 2.205h-3.482c1.12 1.946 2.812 3.78 5.01 5.529a38.099 38.099 0 003.43 2.408c.424.268.844.524 1.324.81.48-.286.9-.542 1.323-.808a38.18 38.18 0 003.428-2.41c4.223-3.358 6.582-7.027 6.582-11.196 0-3.343-2.177-5.667-4.958-5.667z" fill="#F0B14E"/></g><defs><clipPath id="clip0_1_2210"><path fill="#fff" transform="translate(8 8)" d="M0 0h34v34H0z"/></clipPath></defs></svg>