<svg width="673" height="559" fill="none" xmlns="http://www.w3.org/2000/svg"><path d="M237.533 132.181c.07.511-.016 1.03-.248 1.493a2.635 2.635 0 01-1.053 1.106 2.7 2.7 0 01-2.95-.183 2.6 2.6 0 01-.902-1.227 2.546 2.546 0 01-.055-1.511c.135-.498.418-.945.812-1.286a2.69 2.69 0 013.371-.113c.56.419.929 1.037 1.025 1.721zm91.805 100.709a1.275 1.275 0 01-.265.962c-.106.136-.239.25-.39.335a1.36 1.36 0 01-1.475-.097 1.294 1.294 0 01-.507-.864c-.045-.343.05-.689.265-.963a1.351 1.351 0 011.865-.237c.279.211.462.522.507.864zM282.574 85.482a1.292 1.292 0 01-.651 1.31 1.355 1.355 0 01-1.483-.09 1.289 1.289 0 01-.07-2.024 1.358 1.358 0 011.691-.056c.28.21.464.519.513.86z" fill="#5DBD6D"/><path d="M447.791 56.224c.045.343-.05.689-.265.962a1.35 1.35 0 01-1.865.237 1.28 1.28 0 01-.242-1.826 1.352 1.352 0 011.865-.237c.279.211.462.522.507.864zm-150.147 99.088a1.294 1.294 0 01-.606 1.405 1.356 1.356 0 01-1.554-.113 1.303 1.303 0 01-.477-.945 1.283 1.283 0 01.31-.897 1.353 1.353 0 011.787-.235c.274.186.466.467.54.785z" fill="#263238"/><path d="M420.127 272.379a1.271 1.271 0 01-.265.962 1.32 1.32 0 01-.882.496 1.347 1.347 0 01-.983-.259 1.302 1.302 0 01-.507-.864c-.045-.343.05-.689.265-.962a1.347 1.347 0 011.865-.237c.28.21.462.521.507.864z" fill="#455A64"/><path d="M231.494 279.903a1.27 1.27 0 01-.126.742 1.339 1.339 0 01-1.995.454 1.3 1.3 0 01-.447-.613 1.265 1.265 0 01-.024-.753c.068-.247.209-.47.406-.639.198-.168.442-.276.701-.309a1.343 1.343 0 01.982.254 1.293 1.293 0 01.503.864zm-125.962-2.642c.07.51-.016 1.03-.248 1.492a2.623 2.623 0 01-1.053 1.106 2.706 2.706 0 01-2.95-.182 2.61 2.61 0 01-.902-1.227 2.546 2.546 0 01-.055-1.511c.135-.498.418-.946.812-1.287.395-.34.884-.559 1.405-.627a2.69 2.69 0 011.972.507c.278.208.511.468.686.764.175.297.288.625.333.965zM353.52 56.045a2.56 2.56 0 01-.248 1.493 2.63 2.63 0 01-1.053 1.106 2.706 2.706 0 01-2.95-.182 2.605 2.605 0 01-.902-1.227 2.547 2.547 0 01-.055-1.511c.135-.498.417-.946.812-1.287a2.69 2.69 0 011.405-.628 2.714 2.714 0 011.968.511c.278.208.512.467.687.763.175.296.29.623.336.962zM534.359 320l4.761-1.488s-3.246-1.556-3.246-6.396c0-4.841 4.458-6.705 2.539-11.116l-5.309 1.341a8.622 8.622 0 01.97 3.683 8.565 8.565 0 01-.725 3.732c-1.356 2.762-2.683 6.074 1.01 10.244z" fill="#5DBD6D"/><path d="M182.079 51.098L176.326 49s1.743 4.057-2.197 8.953c-3.939 4.895-9.71 3.497-11.488 9.32L168.69 70a11.896 11.896 0 012.112-4.473 11.836 11.836 0 013.746-3.22c3.678-1.767 7.566-4.127 7.531-11.209zm394.279 165.266L572.636 215s1.141 2.594-1.439 5.724c-2.58 3.13-6.359 2.236-7.524 5.959l3.962 1.744a7.53 7.53 0 011.383-2.86 7.72 7.72 0 012.453-2.059c2.386-1.129 4.944-2.639 4.887-7.144zm95.142 263L667.778 478s1.142 2.594-1.438 5.724c-2.58 3.13-6.36 2.236-7.524 5.959l3.962 1.744a7.528 7.528 0 011.382-2.86 7.712 7.712 0 012.454-2.059c2.386-1.129 4.943-2.639 4.886-7.144zM480.627 295.689l.536-3.857s-2.283 1.677-6.016-.112c-3.734-1.789-3.585-5.59-7.604-5.869l-.856 4.17a7.899 7.899 0 013.132.701 7.75 7.75 0 012.576 1.881c1.656 2.001 3.756 4.103 8.232 3.086z" fill="#455A64"/><path d="M464.552 117.491l.536-3.846s-2.283 1.677-6.017-.112c-3.733-1.789-3.585-5.59-7.603-5.869l-.857 4.17a7.923 7.923 0 013.131.696 7.79 7.79 0 012.578 1.875c1.678 2.001 3.756 4.103 8.232 3.086zm206.54-102.519L665.668 12s-4.446 6.642.889 10c-.015.015-1.111-4.31 4.535-7.028zM666.117 29l5.995-1.843s.357-4.267-6.135-5.157c.031-.026 4.1 3.842.14 7z" fill="#5DBD6D"/><path d="M310.34 267.202l4.396-1.61s.262-3.689-4.567-4.472c.057 0 3.048 3.354.171 6.082z" fill="#455A64"/><path d="M477.053 108.11a2.558 2.558 0 01.248-1.494 2.634 2.634 0 011.054-1.107c.456-.258.98-.379 1.505-.345.526.033 1.03.218 1.448.531.418.314.731.742.9 1.23.17.489.187 1.015.051 1.513a2.6 2.6 0 01-.817 1.285 2.703 2.703 0 01-3.371.108 2.597 2.597 0 01-1.018-1.721z" fill="#263238"/><path d="M508.074 265.424c-.034-.255.01-.513.126-.743.116-.23.299-.421.526-.549a1.348 1.348 0 011.468.096 1.28 1.28 0 01.065 2.004 1.352 1.352 0 01-1.68.052 1.29 1.29 0 01-.505-.86z" fill="#5DBD6D"/><path d="M662.811 267.615l-6.337 1.755s-3.025-7.759 3.266-9.95c0-.045-2.147 4.137 3.071 8.195z" fill="#455A64"/><path d="M661.772 251.226l5.445 3.476s-.799 5.065-7.478 4.718c0-.044 5.069-3.633 2.033-8.194z" fill="#455A64"/><path d="M459.209 205.03l-6.371 1.8s-3.014-7.759 3.265-9.95c0-.045-2.135 4.092 3.106 8.15zm-1.062-16.39l5.446 3.477s-.8 5.065-7.49 4.718c0 0 5.081-3.633 2.044-8.195zm-215.328 53.038l-6.348 1.756s-3.014-7.759 3.265-9.951c0 0-2.146 4.137 3.083 8.195z" fill="#263238"/><path d="M509.17 192.542l4.19 2.236s3.425-5.009-.685-7.524c0-.011.833 3.231-3.505 5.288zm3.391-11.426l-4.407 1.61s-.252 3.689 4.566 4.472c-.045.045-3.036-3.309-.159-6.082z" fill="#455A64"/><path d="M363.499 172.865l4.19 2.236s3.425-4.997-.685-7.524c0-.011.867 3.242-3.505 5.288zm3.39-11.392l-4.407 1.598s-.251 3.701 4.567 4.472c-.046.023-3.037-3.32-.16-6.07z" fill="#5DBD6D"/><path d="M.675 499.534l78.53-.269 78.53-.1 157.059-.19 157.059.19 78.53.1 78.529.269-78.529.279-78.53.09-157.059.19-157.059-.19-78.53-.101-78.53-.268z" fill="#BFBFBF"/><path d="M436.02 238.603c-16.943 10.644-46.034 17.665-68.743 15.708a65.453 65.453 0 01-10.595-1.643c-4.67-1.118-9.214-2.381-13.598-3.555-29.182-7.826-54.368-14.534-97.799-2.941-51.868 13.841-63.434 20.124-64.438 20.258l7.66-8.172-10.161-6.205c.24 0 11.977-6.339 62.989-19.956 47.335-12.623 75.638-5.054 105.608 2.951 4.339 1.118 8.814 2.359 13.358 3.5 1.762.432 3.545.776 5.343 1.028 21.602 3.041 52.885-4.472 65.797-14.534a11.836 11.836 0 003.289-3.768l.216 15.652c.286.235.583.828 1.074 1.677z" fill="#5DBD6D"/><path opacity=".2" d="M436.02 238.603c-16.943 10.644-46.034 17.665-68.743 15.708a65.453 65.453 0 01-10.595-1.643c-4.67-1.118-9.214-2.381-13.598-3.555-29.182-7.826-54.368-14.534-97.799-2.941-51.868 13.841-63.434 20.124-64.438 20.258l7.66-8.172-10.161-6.205c.24 0 11.977-6.339 62.989-19.956 47.335-12.623 75.638-5.054 105.608 2.951 4.339 1.118 8.814 2.359 13.358 3.5 1.762.432 3.545.776 5.343 1.028 21.602 3.041 52.885-4.472 65.797-14.534a11.836 11.836 0 003.289-3.768l.216 15.652c.286.235.583.828 1.074 1.677z" fill="#000"/><path d="M432.629 215.841s.263 37.587-7.25 45.704c0 0-49.562 89.34-76.266 94.415-22.618 4.305-104.969-55.408-104.969-55.408l26.042-39.286s14.397 6.864 34.035 17.362c16.212 8.676 30.141 18.503 30.563 17.776 6.143-10.822 31.192-41.578 30.701-43.602-5.423-22.505 10.972-36.894 10.972-36.894l56.172-.067z" fill="#263238"/><path d="M425.368 261.545s-12.171 21.957-27.71 44.72l-32.185-53.496c-5.4-22.495 10.995-36.894 10.995-36.894h56.172s.24 37.553-7.272 45.67z" fill="#37474F"/><path d="M169.43 293.251c.742-2.716 43.933-66.174 47.152-67.56 1.211-.548 53.661 35.574 53.661 35.574l-26.02 39.13-33.406-21.085s-26.922 16.625-30.621 17.787c-3.699 1.163-11.52-1.14-10.766-3.846z" fill="#FFCCB3"/><path d="M169.441 293.251c.742-2.717 43.922-66.174 47.13-67.561.582-.268 17.126 10.756 27.001 17.396l-26.75 40.081-6.062-3.813s-26.865 16.569-30.564 17.743c-3.699 1.174-11.52-1.152-10.755-3.846z" fill="#EBEBEB"/><path d="M169.281 293.541c.754-2.694 43.785-66.968 46.97-68.365 1.211-.537 11.018 5.903 21.43 13.941l-27.024 40.897s-26.979 16.188-30.644 17.373c-3.664 1.185-11.474-1.118-10.732-3.846z" fill="#5DBD6D"/><path d="M172.478 294.325c7.478-10.42 36.592-53.138 43.168-63.994 0-.09 0-.134-.068 0-7.627 10.162-36.398 53.116-43.271 63.916-.149.19.022.291.171.078zm12.616.492a10.082 10.082 0 001.701-3.859 9.987 9.987 0 00-.034-4.202 9.872 9.872 0 00-4.168-6.138s-.137.067-.08.123a11.72 11.72 0 013.606 6.588c.44 2.521.033 5.113-1.162 7.387-.046.101.08.19.137.101zm22.218-12.198c2.945-4.193 4.761-10.062 3.014-15.048-.069-.19-.343-.101-.366.067a69.138 69.138 0 01-3.231 14.713.313.313 0 00.029.21.327.327 0 00.155.148.339.339 0 00.399-.09zm-3.528 2.471c2.945-4.192 4.761-10.062 3.014-15.059-.069-.19-.343-.09-.365.078a69.384 69.384 0 01-3.231 14.713.318.318 0 00.183.358.339.339 0 00.399-.09zm-3.528 2.381c2.945-4.204 4.761-10.062 3.014-15.059-.069-.19-.343-.09-.365.078a69.285 69.285 0 01-3.231 14.702.322.322 0 00.174.371.338.338 0 00.408-.092zm-3.528 2.427c2.946-4.204 4.761-10.118 3.014-15.06-.068-.19-.342-.089-.365.079a69.263 69.263 0 01-3.231 14.701.319.319 0 00.175.372.334.334 0 00.407-.092zm27.356-50.177c3.219-4.763-4.339-9.671-7.558-4.897-3.22 4.774 4.338 9.671 7.558 4.897z" fill="#263238"/><path d="M215.749 294.75c3.288-.973 3.345-4.841 2.363-7.379a26.798 26.798 0 00-6.233-9.168c-.366-.38-.754-.726-1.142-1.118a6.131 6.131 0 01-.514-.425l-.148-.089-.423-.335a.132.132 0 00-.119-.016.135.135 0 00-.053.031.136.136 0 00-.033.052.69.69 0 00-.708.156.469.469 0 00-.16.369v3.723a6.366 6.366 0 000 .648 26.704 26.704 0 001.073 9.034c.845 2.527 3.003 5.411 6.097 4.517zm-5.708-11.18c0-1.051-.069-2.102-.103-3.142-.034-1.04-.069-1.766-.114-2.65v-.704l.205.246c.434.57.856 1.118 1.302 1.666a50.885 50.885 0 013.276 4.628 28.818 28.818 0 011.873 3.444c.799 1.856 1.575 8.385-3.425 5.724-2.74-1.442-2.855-6.663-2.957-9.235l-.057.023z" fill="#263238"/><path d="M209.287 277.365a.133.133 0 00.108.135.134.134 0 00.063-.001c.137-.024.271-.061.4-.112a.229.229 0 00.159 0 2.76 2.76 0 00.697-.19c.84-.233 1.66-.528 2.454-.883a27.16 27.16 0 008.563-5.59c1.964-1.934 3.494-5.489.891-7.67a2.852 2.852 0 00-.297-.212c-2.409-1.71-5.412 0-7.159 1.878a25.916 25.916 0 00-4.212 6.708c-.765 1.688-1.485 3.354-2.284 5.042a.61.61 0 00.038.627.634.634 0 00.579.268zm3.562-6.317c1.142-2.325 3.425-7.043 6.576-7.3a4.305 4.305 0 012.135.257c2.421 1.118-.148 5.176-1.393 6.328a29.896 29.896 0 01-3.128 2.437c-.822.57-1.656 1.118-2.535 1.576-1.404.828-2.843 1.577-4.27 2.37-.091 0-.171.112-.262.146a.927.927 0 00.125-.257 7.73 7.73 0 00.366-.66c.81-1.61 1.564-3.265 2.386-4.897z" fill="#263238"/><path d="M599.902 455.127c-1.793 2.236-67.236 43.523-70.787 43.602-1.336 0-34.674-53.564-34.674-53.564l39.823-25.714 22.036 32.422s31.397-4.707 35.256-4.338c3.859.369 10.138 5.4 8.346 7.592z" fill="#FFCCB3"/><path d="M599.89 455.126c-1.781 2.236-67.235 43.524-70.786 43.602-.639 0-11.314-16.557-17.674-26.507l40.862-26.307 3.996 5.87s31.386-4.707 35.256-4.338c3.871.369 10.15 5.5 8.346 7.68z" fill="#EBEBEB"/><path d="M600.153 454.914c-1.781 2.236-67.419 44.317-70.912 44.351-1.336 0-7.695-9.716-13.975-21.153l41.433-26.944s31.34-4.326 35.176-3.957c3.836.369 10.047 5.512 8.278 7.703z" fill="#5DBD6D"/><path d="M597.538 452.946c-11.097 6.641-55.19 34.446-65.648 41.825-.08.067 0 .123 0 .067 11.143-6.339 55.019-34.491 65.717-41.713.274-.156.171-.335-.069-.179zm-11.36-5.377a10.39 10.39 0 00-3.125 2.861 10.141 10.141 0 00-1.693 3.847 9.716 9.716 0 001.324 7.245c0 .067.16 0 .126-.079a11.591 11.591 0 01-.631-7.445 11.789 11.789 0 014.056-6.328c.114-.034.023-.157-.057-.101zm-25.357 2.504c-4.407 2.706-8.483 7.413-8.894 12.634 0 .201.274.223.365.067a70.253 70.253 0 018.963-12.22.32.32 0 00-.005-.424.333.333 0 00-.204-.106.334.334 0 00-.225.049zm4.236-.85c-4.419 2.706-8.483 7.424-8.894 12.634 0 .201.274.223.365.078a70.343 70.343 0 018.951-12.231.319.319 0 00-.013-.408.33.33 0 00-.191-.107.342.342 0 00-.218.034zm4.224-.838c-4.419 2.706-8.483 7.413-8.894 12.634 0 .201.274.224.365.067a70.365 70.365 0 018.951-12.22.321.321 0 00-.012-.408.336.336 0 00-.41-.073zm4.224-.849c-4.418 2.705-8.483 7.423-8.894 12.633 0 .202.274.224.366.079a70.305 70.305 0 018.951-12.231.32.32 0 00-.013-.408.337.337 0 00-.41-.073zm-45.52 35.328c-4.898 3.108 0 10.565 4.932 7.446 4.932-3.119-.034-10.565-4.932-7.446z" fill="#263238"/><path d="M558.035 435.662c-3.425-.402-5.035 3.131-5.172 5.848a26.502 26.502 0 001.975 10.833c.183.492.4.961.616 1.42.115.19.206.391.297.581l.103.146.251.469c.013.016.03.029.048.039.019.009.04.013.061.013a.138.138 0 00.06-.013.153.153 0 00.048-.039.68.68 0 00.719.134.468.468 0 00.178-.103.462.462 0 00.119-.165c.468-1.118.994-2.236 1.507-3.421.103-.19.183-.38.274-.582a26.915 26.915 0 002.695-8.709c.228-2.571-.571-6.093-3.779-6.451zm.628 12.477c-.388.984-.799 1.957-1.142 2.918-.343.962-.662 1.655-.982 2.482 0 .112-.091.246-.125.347l-.115.313c0-.101-.057-.201-.08-.302-.022-.101 0 0 0 0-.171-.682-.319-1.353-.502-2.035a47.508 47.508 0 01-1.142-5.523 29.63 29.63 0 01-.308-3.89c0-2.013 1.964-8.296 5.458-3.913 1.883 2.37-.115 7.211-1.062 9.603z" fill="#263238"/><path d="M556.882 454.121a.141.141 0 00.013-.06.138.138 0 00-.058-.107.134.134 0 00-.058-.023 1.883 1.883 0 00-.411 0 .184.184 0 00-.16 0 3.072 3.072 0 00-.708-.089 17.054 17.054 0 00-2.614-.157 27.53 27.53 0 00-10.116 1.755c-2.58 1.007-5.435 3.667-3.939 6.708.054.108.115.213.183.313 1.518 2.505 4.978 2.091 7.33 1.118a26.4 26.4 0 006.622-4.55c1.392-1.241 2.74-2.538 4.121-3.745a.608.608 0 00.154-.999.633.633 0 00-.359-.164zm-5.835 4.405c-2.02 1.677-6.039 5.109-9.008 4.125a4.108 4.108 0 01-1.849-1.062c-1.781-1.956 2.283-4.695 3.847-5.265a30.688 30.688 0 013.859-1.007 38.252 38.252 0 012.969-.469c1.632-.201 3.254-.324 4.886-.503h.309c-.082.057-.158.12-.229.19a12.66 12.66 0 00-.605.469c-1.404 1.141-2.763 2.348-4.179 3.522zm-15.573-37.867l-40.999 24.45s-41.798-42.964-51.377-80.06c-2.888-11.18-51.685-80.831-68.057-98.283-21.544-22.975.171-50.958.171-50.958h59.506l.297 21.029c4.681 7.435 100.459 183.822 100.459 183.822z" fill="#263238"/><path d="M422.673 226.954a50.318 50.318 0 016.554 4.55 50.754 50.754 0 015.822 5.423 49.39 49.39 0 01-6.553-4.562 50.655 50.655 0 01-5.823-5.411z" fill="#37474F"/><path d="M412.558 107.697c-.731-4.472-1.702-9.179-8.529-11.348-14.648-4.64-25.118 14.914-42.027 21.175-20.368 7.58-28.542 19.621-20.254 27.358 9.26 8.664 26.454 3.834 40.68-20.124 8.905-14.97 16.84-18.749 20.494-18.693 2.637 0 6.336 5.232 6.336 5.232l3.3-3.6z" fill="#263238"/><path d="M387.543 116.652c-1.587 2.236-2.9 4.707-4.293 7.088-1.393 2.382-2.74 4.786-4.179 7.122-1.438 2.337-2.957 4.64-4.635 6.809a41.189 41.189 0 01-5.526 6.037 21.423 21.423 0 01-6.919 4.26 24.594 24.594 0 01-8.186 1.296 18.753 18.753 0 01-8.106-1.923 16.59 16.59 0 01-3.528-2.314 16.797 16.797 0 01-1.495-1.476 7.26 7.26 0 01-1.211-1.721 10.385 10.385 0 002.478 3.443 16.71 16.71 0 003.425 2.616 18.588 18.588 0 004.053 1.677c1.418.393 2.878.626 4.35.693a23.68 23.68 0 004.373-.19l1.084-.167 1.062-.213a19.212 19.212 0 002.124-.581 22.584 22.584 0 007.375-4.472 52.275 52.275 0 0010.15-13.282c1.382-2.415 2.637-4.874 3.859-7.345s2.421-4.942 3.745-7.357zm25.049-7.658a22.049 22.049 0 00-1.142-5.59 12.27 12.27 0 00-3.02-4.682 12.604 12.604 0 00-4.812-2.91 15.004 15.004 0 00-2.763-.636 13.893 13.893 0 00-2.809-.168 16.569 16.569 0 00-5.423 1.353 28.036 28.036 0 00-4.898 2.884c-3.105 2.236-5.982 4.83-8.962 7.323a78.35 78.35 0 01-9.454 6.976 77.56 77.56 0 01-10.652 5.054 88.327 88.327 0 00-10.618 4.729 22.847 22.847 0 00-4.704 3.354l-1.027.995c-.32.369-.605.749-.914 1.118l-.456.559-.388.603-.765 1.23a19.594 19.594 0 017.855-8.452 90.703 90.703 0 0110.549-5.165 87.264 87.264 0 0010.344-5.199 76.848 76.848 0 009.225-6.909c2.991-2.459 5.869-5.076 9.134-7.323a29.146 29.146 0 015.206-2.94 16.709 16.709 0 015.914-1.308c1.02-.005 2.038.093 3.037.29.992.177 1.966.439 2.911.783a12.702 12.702 0 014.981 3.244 12.347 12.347 0 012.909 5.119c.52 1.845.77 3.754.742 5.668z" fill="#263238"/><path d="M417.239 107.954c-.137-1.386-1.37-3.041-2.284-3.175-.913-.134-7.33 3.51-7.706 5.277-.377 1.766 2.82 2.896 2.82 2.896l7.17-4.998z" fill="#5DBD6D"/><path d="M428.484 155.983c8.232-17.888 16.201-31.874 28.543-53.049 6.417-11.023 17.583-28.777 20.448-33.54 3.779-6.216 30.77 17.888 27.721 21.801-1.986 2.583-13.301 18.615-24.227 29.951-14.032 14.534-24.387 28.04-40.051 43.066-11.84 11.392-17.868 3.588-12.434-8.229z" fill="#FFCCB3"/><path d="M497.604 98.853c6.77-2.571 27.31-16.77 30.712-20.392 3.402-3.622 12.433-14.936 9.83-17.776-2.603-2.84-5.514.246-5.514.246s3.425-5.802.148-7.971c-2.603-1.722-6.93 2.414-6.93 2.414s3.425-6.551-.114-8.295c-3.208-1.599-6.725 4.025-6.725 4.025s2.283-5.77-1.142-6.708c-4.076-1.118-7.992 8.832-12.102 12.61-.925.862-26.91 16.223-26.91 16.223l18.747 25.624z" fill="#FFCCB3"/><path d="M518.851 50.802c-3.733 7.178-5.492 10.062-11.851 14.646-.126.09 0 .29.114.2 6.656-3.946 8.997-7.188 12.114-14.723.148-.37-.194-.458-.377-.123zm6.919 4.561c-3.768 7.357-6.565 10.14-12.901 15.44-.092.078 0 .224.125.156 6.633-4.684 10.276-7.703 13.004-15.529.16-.357-.057-.402-.228-.067zm6.508 5.837c-4.122 6.864-7.01 10.24-13.804 14.623a.141.141 0 00-.048.086.143.143 0 00.096.16.152.152 0 00.101 0c7.375-3.802 11.006-7.983 13.86-14.724.229-.459.092-.582-.205-.146z" fill="#263238"/><path d="M473.925 75.79S476.722 65 487.18 61.03c4.213-1.61 10.116-13.874 14.009-13.628 4.35.28 1.233 11.381-4.065 17.351 0 0 7.068 11.001 2.284 16.972-1.039 1.296-8.632 5.4-10.527 5.02l-14.956-10.957z" fill="#FFCCB3"/><path d="M496.805 65.548c2.911 4.193 4.932 10.554 2.865 15.183a.116.116 0 00-.01.087.118.118 0 00.216.025c2.911-4.663.628-12.053-2.192-15.652-.548-.682-1.633-.716-.879.357z" fill="#263238"/><path d="M436.465 206.629l-1.781 9.212h-58.227s9.133-46.721 30.426-60.584c10.664-6.932 20.391-3.891 25.118 3.89 1.199 1.968 13.381 22.584 13.038 32.422-.319 8.766-8.574 15.06-8.574 15.06z" fill="#FFCCB3"/><path d="M445.051 191.614c-.309 8.172-7.604 14.232-8.506 14.959l-56.766-3.746c1.324-4.539 3.037-9.86 5.217-15.35 5.641.199 11.288-.051 16.886-.749 2.478-.458 7.992-8.541 15.048-7.714s14.112 7.714 14.112 7.714a22.95 22.95 0 0111.531-6.518c1.507 4.26 2.592 8.363 2.478 11.404z" fill="#263238"/><path d="M432.013 159.136a14.915 14.915 0 00-.994-1.453c1.679 4.762 4.853 15.26.765 16.3-4.487 1.118-15.778-16.021-19.272-21.51a26.177 26.177 0 00-5.617 2.783c-16.338 10.454-30.027 48.209-31.706 60.551h59.507l1.769-9.212s8.255-6.294 8.586-15.015c.342-9.849-11.84-30.465-13.038-32.444zm-22.184 22.863c-3.014 6.384-9.876 11.337-14.443 10.733-3.733-.503-5.48-5.467-3.996-11.806 2.558-10.8 13.438-26.72 18.393-26.34 5.686.436 5.047 16.781.046 27.413z" fill="#455A64"/><path d="M417.638 198.892a56.096 56.096 0 019.362 2.404c1.519.559 2.992 1.207 4.476 1.878.731.347 1.473.649 2.283.95a8.735 8.735 0 002.409.694c.069 0 .057.134 0 .134a15.063 15.063 0 01-2.352-.19 15.92 15.92 0 01-2.215-.638c-1.541-.547-3.059-1.185-4.566-1.755-3.106-1.118-6.2-2.236-9.362-3.175-.24-.033-.183-.335-.035-.302zm-8.083 2.862a60.724 60.724 0 017.935 0c1.324.101 2.626.291 3.939.515.616.112 1.244.235 1.861.369.616.134 1.347.402 2.032.536.08 0 .069.146 0 .134-.651-.111-1.324-.078-1.975-.145l-1.975-.179c-1.313-.112-2.626-.212-3.951-.346a185.362 185.362 0 00-7.889-.649c-.148.011-.114-.235.023-.235z" fill="#263238"/><path d="M380.658 196.6c5.644.3 11.3.3 16.943 0 10.881-.726 23.154-2.661 23.405-2.504.457.291 21.898-.201 21.898-.201l1.656.917.263-1.118-1.473-.783c.521-1.604.638-3.307.342-4.964-.502-2.627-4.567-13.416-4.681-13.718-.114-.302-7.147-15.898-7.238-15.987-.092-.09-.754-.57-.754-.57l7.01 16.647a49.407 49.407 0 01-7.021.995 86.512 86.512 0 01-8.609-.839s-5.023-12.924-5.822-14.254c-.8-1.331-3.517-7.961-3.791-7.826a7.963 7.963 0 01-.788.212s4.11 10.062 4.704 11.091c.594 1.028 4.43 11.526 4.43 11.526s.822 8.765.856 10.342a57.943 57.943 0 01-1.073 6.942s-12.216 1.756-23.005 2.661c-8.997.772-16.875.727-16.989.727-.114 0-.263.704-.263.704z" fill="#fff"/><path d="M427.913 179.841l.514 10.778c0 .57-.285 1.017-.673 1.04-.389.022-.72-.403-.742-.973l-.434-8.944-.491.436a.519.519 0 01-.354.168.724.724 0 01-.628-.481 1.242 1.242 0 01.171-1.386l1.507-1.409h.194a.132.132 0 01.092 0h.308s.057.056.08.056a.137.137 0 00.057 0v.056l.057.067c.057.067 0 0 0 .078l.057.067v.179c.003.03.003.06 0 .089a.185.185 0 000 .135l.285.044zm11.669-.156l-2.683 10.956c-.091.38-.331.615-.628.626a.492.492 0 01-.274-.056 1.26 1.26 0 01-.445-1.297l2.283-9.502-3.299.145c-.389 0-.731-.447-.754-.995-.023-.548.274-1.018.651-1.029l4.395-.201a.268.268 0 01.126 0 .77.77 0 01.274.134v.056a.097.097 0 010 .067l.057.067v.079a.66.66 0 010 .089v.179a.266.266 0 000 .089 2.26 2.26 0 010 .403c.308.078.308.134.297.19z" fill="#263238"/><path d="M416.862 153.166c.217 1.263 5.777 9.738 11.622 9.838 1.896 0 2.524-10.129 2.524-10.129l.217-.749 3.082-10.353-12.091-8.731-1.758-1.118s-.651 2.884-1.427 6.495c0 .168-.068.336-.114.515a9.007 9.007 0 00-.126.581c-.125.537-.251 1.118-.365 1.632a18.68 18.68 0 00-.24 1.264c-.068.436-.16.872-.251 1.319a69.107 69.107 0 00-1.073 9.436z" fill="#FFCCB3"/><path d="M419.031 138.397a21.522 21.522 0 004.552 8.18 22.066 22.066 0 007.642 5.549l3.082-10.353-12.09-8.731-1.759-1.118s-.65 2.862-1.427 6.473z" fill="#263238"/><path d="M443.281 117.446c9.465 16.524.422 23.936-3.22 25.926-3.299 1.811-14.842 7.569-25.939-7.904-11.098-15.473-6.303-25.01 1.039-29.538 7.341-4.528 18.655-4.997 28.12 11.516z" fill="#FFCCB3"/><path d="M438.657 116.093a10.31 10.31 0 01-1.267.391c-.43.201-.916.256-1.381.157a.664.664 0 01-.411-.716c.092-.279.257-.529.48-.725a1.71 1.71 0 01.787-.393 2.58 2.58 0 011.804 0 .72.72 0 01.404.647.707.707 0 01-.416.639zm-11.04 6.16a9.292 9.292 0 001.027-.838c.408-.24.721-.606.891-1.04a.643.643 0 00-.07-.432.67.67 0 00-.33-.295 1.705 1.705 0 00-.894-.014 1.668 1.668 0 00-.773.439c-.509.355-.86.887-.982 1.487a.702.702 0 00.062.401.725.725 0 00.673.413.74.74 0 00.396-.121zm9.248 11.147c.404.215.872.286 1.324.201a3.244 3.244 0 001.142-.894h.08c-.05.304-.183.59-.383.828a1.766 1.766 0 01-.759.524 1.432 1.432 0 01-.811-.082 1.403 1.403 0 01-.628-.51c-.114-.023-.034-.09.035-.067zm2.489-6.697s1.199 1.554 1.644 2.348c0 .067-.126.212-.4.38a4.466 4.466 0 01-2.193.943 4.507 4.507 0 01-2.374-.317.104.104 0 01-.034-.049.095.095 0 01.001-.06.097.097 0 01.034-.048.098.098 0 01.057-.022 6.73 6.73 0 004.075-.928c-.068-.246-2.135-2.594-2.009-2.672a8.1 8.1 0 012.067-.592c-2.387-3.354-5.298-6.216-7.627-9.537a.117.117 0 01-.027-.086.127.127 0 01.21-.082 66.04 66.04 0 018.665 9.928c.32.425-1.644.749-2.089.794z" fill="#263238"/><path d="M439.65 129.688a4.365 4.365 0 01-.924 2.012 2.039 2.039 0 01-1.039.626c-.88.202-1.279-.48-1.462-1.118-.1-.364-.15-.74-.148-1.118a5.811 5.811 0 003.573-.402z" fill="#263238"/><path d="M438.726 131.678a2.035 2.035 0 01-1.039.626c-.879.202-1.279-.48-1.461-1.118a2.115 2.115 0 012.5.492z" fill="#FF9CBD"/><path d="M430.015 126.055a1.194 1.194 0 01-.103.458.853.853 0 01-.525.525c-.754.291-1.45-.29-1.873-.983v-.068c.491.213 1.039.414 1.416.146.237-.237.399-.536.468-.861.179.28.385.542.617.783z" fill="#263238"/><path d="M429.523 126.055a2.027 2.027 0 01-.114-1.118 1.523 1.523 0 01.708-.962 1.39 1.39 0 011.222 0c.335.154.629.384.856.671.136.169.258.348.365.536a2.9 2.9 0 01.411 1.275 5.102 5.102 0 00-.536-.816 6.873 6.873 0 00-.617-.649c-.445-.402-.982-.648-1.37-.402a1.12 1.12 0 00-.459.596 1.1 1.1 0 00.025.746c.146.607.352 1.199.617 1.766a4.182 4.182 0 01-1.108-1.643zm10.892-6.34c.141.076.29.132.446.168a.935.935 0 00.742-.145 1.57 1.57 0 00.484-1.001 1.558 1.558 0 00-.302-1.068s-.068-.078-.079 0c-.092.526-.217 1.118-.651 1.241-.333.07-.679.039-.993-.089.152.284.271.584.353.894z" fill="#263238"/><path d="M440.667 119.324a2.18 2.18 0 00-.868-.671 1.567 1.567 0 00-1.21.056 1.372 1.372 0 00-.47.406 1.326 1.326 0 00-.238.567 2.36 2.36 0 00.103 1.118c.079.201.171.402.262.592.209.405.509.757.879 1.029a3.962 3.962 0 01-.411-.895 5.457 5.457 0 01-.228-.849c-.091-.593 0-1.118.411-1.342.24-.101.508-.118.759-.049.252.069.471.221.622.429.431.449.814.94 1.142 1.465a4.146 4.146 0 00-.753-1.856zm-18.291-11.996a8.292 8.292 0 012.135 4.472c.183 4.74-5.012 6.138-5.799 8.452-.788 2.314 1.335 4.819.742 6.921-.834 2.906-2.855 2.168-2.455 3.633.4 1.465 1.735 6.093.32 7.502-1.416 1.408-24.125-22.36-1.37-32.892 0 0 2.409-2.996 8.403-2.895 8.597.145 14.305 8.161 14.305 8.161a6.402 6.402 0 01-2.614.134c-1.564-.369-2.478-.794-3.585-.995-1.747-.302-2.147.76-3.928.503-2.751-.413-6.154-2.996-6.154-2.996z" fill="#263238"/><path d="M421.669 106.456c.93.907 1.75 1.916 2.443 3.007a6.77 6.77 0 011.267 3.489 5.084 5.084 0 01-1.564 3.32c-.856.928-1.964 1.632-2.866 2.672a3.849 3.849 0 00-.902 1.867c-.055.68.026 1.364.24 2.012a6.674 6.674 0 01.388 3.656 4.246 4.246 0 01-.836 1.623 4.36 4.36 0 01-1.447 1.139c-1.142.581-2.535.905-3.368 1.956.925-.984 2.283-1.118 3.494-1.688a4.68 4.68 0 001.661-1.162c.46-.503.801-1.098.999-1.745a6.65 6.65 0 00-.297-3.924 4.714 4.714 0 01-.206-1.789 3.33 3.33 0 01.8-1.565c.799-.95 1.906-1.688 2.808-2.683a6.467 6.467 0 001.142-1.666 3.964 3.964 0 00.445-1.979 7.104 7.104 0 00-1.495-3.644 16.46 16.46 0 00-2.706-2.896zm1.004.772a13.612 13.612 0 002.695 2.459 6.559 6.559 0 003.528 1.252 9.49 9.49 0 001.849-.201 3.053 3.053 0 011.633.168 9.872 9.872 0 001.655.794 4.174 4.174 0 001.85.078 4.496 4.496 0 01-1.735-.369 8.872 8.872 0 01-1.542-.917 3.24 3.24 0 00-1.929-.324 9.97 9.97 0 01-1.758.168 6.962 6.962 0 01-3.277-1.118 28.832 28.832 0 01-2.969-1.99z" fill="#263238"/><path d="M417.992 134.775s-6.142-3.98-8.129-1.621c-1.986 2.359 4.168 9.179 7.604 9.112.44.021.88-.046 1.293-.195.414-.15.792-.38 1.112-.677.32-.297.575-.654.751-1.049a3.14 3.14 0 00.269-1.254l-2.9-4.316z" fill="#FFCCB3"/><path d="M411.679 135.065c-.057 0 0 .09 0 .09 2.432 0 4.304 1.498 5.879 3.164a1.84 1.84 0 00-2.18-.043 1.79 1.79 0 00-.514.568c0 .067 0 .123.103.09a2.044 2.044 0 012.283-.157 9.788 9.788 0 011.644 1.252c.172.146.468-.089.309-.268-.994-2.683-4.522-5.545-7.524-4.696zm33.829-13.002a20.546 20.546 0 012.169 7.625 15.698 15.698 0 01-.171 4.003 16.593 16.593 0 01-.457 1.967 16.786 16.786 0 01-.765 1.89 14.958 14.958 0 01-2.283 3.354 15.636 15.636 0 01-3.163 2.549 16.816 16.816 0 01-7.684 2.37 18.563 18.563 0 003.836-1.118 17.034 17.034 0 006.428-4.338 13.808 13.808 0 002.147-3.175 15.19 15.19 0 001.507-7.457 21.033 21.033 0 00-.445-3.857 25.005 25.005 0 00-1.119-3.813zm-42.518 47.962c-.274-.436-.548-.872-.833-1.308a94.401 94.401 0 005.549 5.065s.114 0 .068-.068a159.278 159.278 0 00-5.8-6.227c-.947-.95-1.861-1.934-2.843-2.862-.982-.928-2.283-2.023-3.288-3.119-.125-.134-.342 0-.217.168.993 1.039 1.884 2.169 2.843 3.253.959 1.084 1.713 1.834 2.603 2.717.168.345.355.68.56 1.006.342.525.685 1.04 1.061 1.543.754.995 1.553 1.967 2.284 2.94-.662-.961-1.336-2.079-1.987-3.108z" fill="#263238"/><path d="M410.594 154.418c-8.734-19.006-16.053-32.723-29.148-55.207-6.85-11.705-15.459-25.713-18.507-30.767-4.008-6.607-32.665 18.928-29.422 23.143 2.101 2.75 9.065 11.627 21.361 25.893 14.021 16.244 25.894 29.761 42.529 45.726 12.559 12.041 18.964 3.756 13.187-8.788z" fill="#FFCCB3"/><path d="M340.607 97.96c-7.193-2.729-28.988-17.755-32.608-21.656-3.619-3.902-13.198-15.843-10.435-18.861 2.763-3.019 5.857.257 5.857.257s-3.63-6.16-.16-8.463c2.763-1.834 7.353 2.56 7.353 2.56s-3.608-6.954.126-8.81c3.425-1.688 7.147 4.27 7.147 4.27s-2.421-6.115 1.141-7.132c4.328-1.207 8.518 9.391 12.845 13.416.982.917 28.543 17.217 28.543 17.217L340.607 97.96z" fill="#FFCCB3"/><path d="M318.035 46.956c3.973 7.625 5.846 10.666 12.559 15.551.126.09 0 .302-.137.213-7.067-4.192-9.545-7.636-12.856-15.652-.114-.38.251-.48.434-.112zm-7.33 4.83c3.939 7.826 6.965 10.766 13.701 16.39.091.078 0 .246-.137.178-7.033-4.986-10.915-8.194-13.803-16.501-.183-.37.057-.425.239-.067zm-6.953 6.194c4.373 7.289 7.444 10.878 14.66 15.529a.155.155 0 01.041.203.161.161 0 01-.201.065c-7.832-4.036-11.691-8.486-14.716-15.652-.206-.48-.058-.604.216-.145z" fill="#263238"/><path d="M365.747 73.475s-2.968-11.46-14.066-15.652c-4.487-1.7-10.755-14.724-14.842-14.467-4.567.302-1.313 12.085 4.316 18.424 0 0-7.513 11.672-2.398 18.023 1.142 1.375 9.134 5.724 11.166 5.332l15.824-11.66z" fill="#FFCCB3"/><path d="M341.451 62.608c-3.082 4.472-5.24 11.18-3.036 16.11.016.03.02.065.01.098a.127.127 0 01-.062.076.133.133 0 01-.177-.05c-3.082-4.953-.662-12.802 2.341-16.614.571-.738 1.724-.738.924.38z" fill="#263238"/><path d="M434.729 218.334c-13.837-6.451-53.477-19.632-80.559-26.038-24.238-5.713-49.288 2.527-73.503 10.487-15.311 5.031-29.765 9.782-43.785 11.046-55.019 4.964-72.99-33.317-74.212-34.949l10.162 2.482 1.792-11.113c1.028 1.364 14.477 33.294 60.911 29.068 12.296-1.118 25.951-5.59 40.416-10.353 24.992-8.217 53.318-17.53 81.701-10.844 28.075 6.607 71.152 19.744 81.233 26.194l-4.156 14.02z" fill="#5DBD6D"/><path d="M242.477 499.635l10.675-1.89s-11.418-11.403-4.396-18.424c7.022-7.021 17.502-.816 17.502-.816s-1.632-16.692 11.555-20.18c13.186-3.488 24.775 21.454 24.775 21.454s1.941-5.858 11.782-3.555c9.842 2.303 17.617 15.428 17.617 15.428l202.323 7.882" fill="#fff"/><path d="M138.032 499.856l13.559-1.94v.079c-2.969-2.385-5.385-5.147-7.143-8.164-.882-1.52-1.375-3.157-1.451-4.822-.052-1.69.622-3.346 1.916-4.71a11.342 11.342 0 012.221-1.805 15.002 15.002 0 012.715-1.368 18.497 18.497 0 016.243-1.122c4.324.011 8.571.888 12.325 2.546l-.363.179a21.945 21.945 0 01.639-7.524c.606-2.49 1.818-4.868 3.571-7.009 1.344-1.605 3.098-2.981 5.155-4.044 2.057-1.062 4.374-1.789 6.807-2.135a16.63 16.63 0 014.951.112c3.219.621 6.204 1.819 8.71 3.499a42.777 42.777 0 016.78 5.427c3.989 3.975 7.397 8.277 10.162 12.829h-.609c.831-1.492 2.352-2.692 4.268-3.364a16.594 16.594 0 015.952-.886c4.062.069 8.024.983 11.469 2.647 3.385 1.671 6.441 3.711 9.073 6.055a54.482 54.482 0 017.128 7.446l-.188-.089 257.264 8.085-257.279-7.738h-.116v-.078a52.933 52.933 0 00-7.114-7.368c-2.607-2.306-5.634-4.308-8.986-5.943-3.364-1.616-7.232-2.5-11.193-2.557a15.68 15.68 0 00-5.676.863c-1.753.618-3.145 1.717-3.906 3.084l-.29.539-.319-.516c-2.775-4.503-6.183-8.756-10.163-12.683a41.362 41.362 0 00-6.649-5.361c-2.407-1.632-5.276-2.808-8.376-3.431a16.083 16.083 0 00-4.878-.112 21.793 21.793 0 00-4.515 1.121c-2.894 1.065-5.346 2.731-7.085 4.811-1.719 2.097-2.911 4.425-3.513 6.863a22.009 22.009 0 00-.682 7.401v.348l-.392-.168c-3.67-1.637-7.827-2.51-12.064-2.535-2.11.026-4.186.409-6.083 1.122-1.886.721-3.53 1.768-4.805 3.061-1.238 1.298-1.891 2.874-1.858 4.486.044 1.633.498 3.243 1.335 4.743 1.711 3.011 4.072 5.776 6.983 8.175l.087.068h-.116l-13.501 1.883z" fill="#BFBFBF"/><path d="M377.29 209.48c-5.708.223-11.417.335-17.126.425-5.708.089-11.417.089-17.125.134-5.709.044-11.417 0-17.126-.134l-8.574-.157c-2.855-.089-5.709-.145-8.563-.268 2.854-.123 5.708-.179 8.563-.28l8.574-.156c5.709-.09 11.417-.079 17.126-.123 5.708-.045 11.417 0 17.125.134 5.709.134 11.406.19 17.126.425zm88.209-132.517c-5.709.224-11.417.336-17.126.425-5.708.09-11.417.078-17.126.123-5.708.045-11.417 0-17.125-.123l-8.575-.156c-2.854-.09-5.708-.146-8.574-.269 2.866-.134 5.709-.19 8.574-.28l8.575-.156c5.708-.09 11.417-.09 17.125-.123 5.709-.033 11.418 0 17.126.123 5.709.123 11.406.202 17.126.436zm8.997 6.775c-3.745.235-7.478.335-11.223.425-3.745.09-7.478.123-11.212.134-3.733.011-7.489 0-11.223-.123l-5.606-.156c-1.861-.101-3.733-.146-5.606-.28 1.873-.123 3.745-.179 5.606-.268l5.618-.157c3.733-.1 7.478-.123 11.223-.134 3.744-.011 7.478 0 11.211.134 3.734.134 7.467.201 11.212.425zM229.872 290.904c-5.012.223-10.036.335-15.048.425-5.012.089-10.036.089-15.048.134-5.012.045-10.035 0-15.059-.134l-7.512-.157c-2.512-.089-5.024-.145-7.524-.268 2.5-.123 5.012-.179 7.524-.28l7.523-.156c5.024-.09 10.036-.078 15.06-.123 5.023-.045 10.035 0 15.047.134 5.013.134 10.025.201 15.037.425zm33.167-10.073c-5.024.223-10.036.335-15.059.425-5.024.089-10.036.089-15.048.134-5.012.045-10.036 0-15.06-.134l-7.523-.157c-2.512-.089-5.013-.145-7.524-.268 2.511-.134 5.012-.179 7.524-.28l7.523-.156c5.024-.09 10.036-.078 15.06-.123 5.023-.045 10.035 0 15.048.123 5.012.123 10.035.223 15.059.436zm124.538-56.963c-7.992.234-15.984.335-23.976.424l-23.976.135-23.976-.123-11.965-.157c-3.996-.101-7.992-.145-11.977-.279 3.996-.123 7.992-.179 11.977-.269l11.965-.156 23.976-.134 23.976.134c8.026.089 15.995.156 23.976.425z" fill="#263238"/><path d="M510.094 479.51c-5.777.235-11.554.336-17.331.425-5.777.09-11.565.09-17.343.134-5.777.045-11.554 0-17.331-.134l-8.677-.156c-2.888-.09-5.777-.146-8.665-.269 2.888-.123 5.777-.179 8.665-.279l8.677-.157c5.777-.078 11.554-.078 17.331-.123 5.778-.044 11.566 0 17.343.134 5.777.135 11.554.191 17.331.425zm-16.794 7.301c-8.163.235-16.338.347-24.501.436l-24.513.123-24.501-.123-12.251-.157c-4.087-.089-8.163-.145-12.25-.279 4.087-.123 8.163-.179 12.25-.268l12.251-.157 24.501-.134 24.513.134c8.163.09 16.338.201 24.501.425z" fill="#BFBFBF"/><path d="M338.609 214.935c-6.851.224-13.781.336-20.665.425-6.885.09-13.781.078-20.665.134-6.885.056-13.781 0-20.677-.134l-10.332-.156c-3.426-.09-6.851-.146-10.276-.269 3.425-.134 6.85-.19 10.276-.279l10.332-.157c6.85-.089 13.781-.078 20.677-.123 6.895-.044 13.769 0 20.665.123 6.896.123 13.78.157 20.665.436z" fill="#263238"/></svg>