<svg width="50" height="50" fill="none" xmlns="http://www.w3.org/2000/svg"><rect width="50" height="50" rx="25" fill="#E9F6EB"/><g clip-path="url(#clip0_1_2202)"><path d="M22.128 33.5h5.744c.187-1.703 1.055-3.108 2.465-4.642.16-.173 1.178-1.229 1.299-1.379a8.5 8.5 0 10-13.274-.002c.122.151 1.143 1.208 1.3 1.38 1.411 1.535 2.28 2.94 2.466 4.643zm5.706 2.834h-5.667v1.416h5.666v-1.416zM16.151 29.25a11.334 11.334 0 1117.694.003c-.878 1.094-3.18 2.83-3.18 4.956v3.541a2.833 2.833 0 01-2.832 2.834h-5.667a2.834 2.834 0 01-2.834-2.834v-3.54c0-2.126-2.302-3.862-3.181-4.959zm10.265-7.078h3.541l-6.374 8.5v-5.666h-3.542l6.375-8.506v5.674-.002z" fill="#5DBD6D"/></g><defs><clipPath id="clip0_1_2202"><path fill="#fff" transform="translate(8 8)" d="M0 0h34v34H0z"/></clipPath></defs></svg>